$MeshFormat
4.1 0 8
$EndMeshFormat
$Entities
4 4 1 0
1 0 0 0 0 
2 10 0 0 0 
3 10 10 0 0 
4 0 10 0 0 
1 -1.000000002804313e-07 -1e-07 -1e-07 10.0000001 1e-07 1e-07 0 2 1 -2 
2 9.999999900000001 -1.000000002804313e-07 -1e-07 10.0000001 10.0000001 1e-07 0 2 2 -3 
3 -1.000000002804313e-07 9.999999900000001 -1e-07 10.0000001 10.0000001 1e-07 0 2 3 -4 
4 -1e-07 -1.000000002804313e-07 -1e-07 1e-07 10.0000001 1e-07 0 2 4 -1 
1 -1.000000002804313e-07 -1.000000002804313e-07 -1e-07 10.0000001 10.0000001 1e-07 0 4 1 2 3 4 
$EndEntities
$Nodes
9 98 1 98
0 1 0 1
1
0 0 0
0 2 0 1
2
10 0 0
0 3 0 1
3
10 10 0
0 4 0 1
4
0 10 0
1 1 0 7
5
6
7
8
9
10
11
1.249999999999998 0 0
2.499999999999998 0 0
3.749999999999998 0 0
4.999999999999999 0 0
6.249999999999999 0 0
7.499999999999999 0 0
8.75 0 0
1 2 0 7
12
13
14
15
16
17
18
10 1.249999999999998 0
10 2.499999999999998 0
10 3.749999999999998 0
10 4.999999999999999 0
10 6.249999999999999 0
10 7.499999999999999 0
10 8.75 0
1 3 0 7
19
20
21
22
23
24
25
8.750000000000002 10 0
7.500000000000002 10 0
6.250000000000002 10 0
5.000000000000001 10 0
3.750000000000001 10 0
2.500000000000001 10 0
1.25 10 0
1 4 0 7
26
27
28
29
30
31
32
0 8.750000000000002 0
0 7.500000000000002 0
0 6.250000000000002 0
0 5.000000000000001 0
0 3.750000000000001 0
0 2.500000000000001 0
0 1.25 0
2 1 0 66
33
34
35
36
37
38
39
40
41
42
43
44
45
46
47
48
49
50
51
52
53
54
55
56
57
58
59
60
61
62
63
64
65
66
67
68
69
70
71
72
73
74
75
76
77
78
79
80
81
82
83
84
85
86
87
88
89
90
91
92
93
94
95
96
97
98
1.082531754730548 4.375000000000001 0
5.640948631062288 1.107249391757811 0
8.917468245269452 5.624999999999999 0
4.311211703666121 8.787408590474769 0
3.307740260769878 1.182626851017925 0
1.044931860864377 6.871891340151976 0
8.929849573903603 3.09891853563649 0
6.875000000000002 8.917468245269452 0
8.94153494368021 8.119703288398904 0
1.869093576235398 8.792304632363123 0
7.966579344023304 1.094851921887086 0
1.082531754730548 1.875 0
8.921479361671246 6.87411721473315 0
7.851464931728502 6.222382678779054 0
7.837691230737169 4.995397113129842 0
6.7714785211623 5.592159774975013 0
6.767503730770467 4.350399505186882 0
5.672778829744137 4.995115585047782 0
5.672991787085349 6.1305714192526 0
4.568493155193426 5.56989618252142 0
4.584684189266008 4.365001961261537 0
3.501225286910863 4.989149690630496 0
3.48121858204062 6.204622660663343 0
3.504430388660738 3.748733700916673 0
4.586835206341053 3.123122610363038 0
2.422277716886163 5.625000000000006 0
3.504809471616708 2.500000000000005 0
2.47628926644937 3.133176815799791 0
2.496554432777509 6.858813604038497 0
3.577361238177699 7.558138451570455 0
4.550024831175844 1.875710532781796 0
5.669872981077805 2.500000000000004 0
6.767859519478132 1.778732193721241 0
6.821170180028819 3.014840143016431 0
7.868767533099794 2.375681941678762 0
7.850749770369365 3.71550443317243 0
3.125 8.917468245269452 0
4.734472164111611 7.774226411965265 0
5.61798247181947 8.628769461960456 0
6.5421871949794 7.772671190067856 0
8.921152691538841 4.36724048594509 0
1.082531754730548 5.625000000000002 0
2.422277716886161 4.375000000000006 0
7.7204190095011 7.652768560692893 0
1.082531754730548 3.125 0
5.683807519538048 3.724746634145946 0
1.933620068394758 1.03415783057214 0
8.121997157939315 8.959730579057826 0
0.9292564867347028 8.081462788186126 0
8.971730864405803 1.911333561284898 0
2.56289184420759 7.923273839860856 0
2.50073349532937 2.010889394411012 0
6.796769537386941 6.728507616617309 0
4.374999999999998 0.8453570123751106 0
4.577243358092081 6.718404232224296 0
6.875 0.7733755452579532 0
9.084936490538903 9.084936490538903 0
9.084936490538903 0.9150635094610973 0
0.9150635094610973 9.084936490538903 0
0.9150635094610973 0.9150635094610973 0
5.656941085579142 7.29219172201463 0
1.752404735808359 6.250000000000007 0
1.752404735808358 3.750000000000005 0
1.752404735808357 5.000000000000006 0
1.753067707846949 2.60160832435939 0
1.746449973847346 7.489644266062752 0
$EndNodes
$Elements
9 198 1 198
0 1 15 1
1 1 
0 2 15 1
2 2 
0 3 15 1
3 3 
0 4 15 1
4 4 
1 1 1 8
5 1 5 
6 5 6 
7 6 7 
8 7 8 
9 8 9 
10 9 10 
11 10 11 
12 11 2 
1 2 1 8
13 2 12 
14 12 13 
15 13 14 
16 14 15 
17 15 16 
18 16 17 
19 17 18 
20 18 3 
1 3 1 8
21 3 19 
22 19 20 
23 20 21 
24 21 22 
25 22 23 
26 23 24 
27 24 25 
28 25 4 
1 4 1 8
29 4 26 
30 26 27 
31 27 28 
32 28 29 
33 29 30 
34 30 31 
35 31 32 
36 32 1 
2 1 2 162
37 76 80 40 
38 72 76 40 
39 37 63 59 
40 36 69 62 
41 62 70 36 
42 37 86 63 
43 22 71 21 
44 43 67 65 
45 39 68 67 
46 65 88 43 
47 36 71 22 
48 21 71 40 
49 34 65 64 
50 34 64 63 
51 49 78 66 
52 67 68 66 
53 41 80 76 
54 70 71 36 
55 66 78 64 
56 66 68 49 
57 70 93 71 
58 71 93 72 
59 69 83 62 
60 59 84 37 
61 65 66 64 
62 79 84 44 
63 84 97 44 
64 72 85 76 
65 71 72 40 
66 65 67 66 
67 67 82 39 
68 47 73 35 
69 68 73 47 
70 39 73 68 
71 41 45 17 
72 46 47 35 
73 48 49 47 
74 49 68 47 
75 48 51 50 
76 54 75 56 
77 56 75 60 
78 54 56 53 
79 58 75 54 
80 55 62 61 
81 25 42 24 
82 32 44 31 
83 48 50 49 
84 52 53 50 
85 28 74 38 
86 30 77 33 
87 46 48 47 
88 52 54 53 
89 52 55 54 
90 56 57 53 
91 55 61 58 
92 56 60 59 
93 7 37 6 
94 9 34 8 
95 14 39 13 
96 16 35 15 
97 35 73 15 
98 17 45 16 
99 18 41 17 
100 21 40 20 
101 23 36 22 
102 24 69 23 
103 42 69 24 
104 28 38 27 
105 30 33 29 
106 45 46 35 
107 41 76 45 
108 57 78 53 
109 64 78 57 
110 11 43 10 
111 15 73 14 
112 29 74 28 
113 33 74 29 
114 31 77 30 
115 16 45 35 
116 23 69 36 
117 45 76 46 
118 53 78 50 
119 59 63 57 
120 44 77 31 
121 51 52 50 
122 55 58 54 
123 56 59 57 
124 63 64 57 
125 14 73 39 
126 50 78 49 
127 62 87 70 
128 81 98 42 
129 42 98 83 
130 6 79 5 
131 27 81 26 
132 20 80 19 
133 63 86 34 
134 13 82 12 
135 39 82 13 
136 34 88 65 
137 37 79 6 
138 40 80 20 
139 38 81 27 
140 51 93 87 
141 43 82 67 
142 48 85 51 
143 76 85 46 
144 34 86 8 
145 7 86 37 
146 55 87 62 
147 51 87 52 
148 9 88 34 
149 43 88 10 
150 12 90 2 
151 5 92 1 
152 1 92 32 
153 2 90 11 
154 3 89 18 
155 4 91 25 
156 26 91 4 
157 19 89 3 
158 85 93 51 
159 62 83 61 
160 42 83 69 
161 60 84 59 
162 87 93 70 
163 46 85 48 
164 37 84 79 
165 8 86 7 
166 52 87 55 
167 72 93 85 
168 79 92 5 
169 81 91 26 
170 80 89 19 
171 10 88 9 
172 32 92 44 
173 11 90 43 
174 18 89 41 
175 25 91 42 
176 82 90 12 
177 95 97 60 
178 95 96 33 
179 77 95 33 
180 75 95 60 
181 74 96 94 
182 75 96 95 
183 33 96 74 
184 74 94 38 
185 61 94 58 
186 58 96 75 
187 94 96 58 
188 77 97 95 
189 44 97 77 
190 41 89 80 
191 42 91 81 
192 44 92 79 
193 61 98 94 
194 94 98 38 
195 43 90 82 
196 38 98 81 
197 60 97 84 
198 83 98 61 
$EndElements
