$MeshFormat
4.1 0 8
$EndMeshFormat
$Entities
8 8 2 0
1 0 0 0 0 
2 1 0 0 0 
3 0 1 0 0 
4 1 1 0 0 
5 0.25 0.25 0 0 
6 0.75 0.25 0 0 
7 0.75 0.75 0 0 
8 0.25 0.75 0 0 
1 -9.999999994736442e-08 -1e-07 -1e-07 1.0000001 1e-07 1e-07 0 2 1 -2 
2 -1e-07 -9.999999994736442e-08 -1e-07 1e-07 1.0000001 1e-07 0 2 3 -1 
3 0.9999999000000001 -9.999999994736442e-08 -1e-07 1.0000001 1.0000001 1e-07 0 2 2 -4 
4 -9.999999994736442e-08 0.9999999000000001 -1e-07 1.0000001 1.0000001 1e-07 0 2 4 -3 
5 0.2499999 0.2499999 -1e-07 0.7500000999999999 0.2500001 1e-07 0 2 5 -6 
6 0.7499999000000001 0.2499999 -1e-07 0.7500000999999999 0.7500000999999999 1e-07 0 2 6 -7 
7 0.2499999 0.7499999000000001 -1e-07 0.7500000999999999 0.7500000999999999 1e-07 0 2 7 -8 
8 0.2499999 0.2499999 -1e-07 0.2500001 0.7500000999999999 1e-07 0 2 8 -5 
2 0.2499999 0.2499999 -1e-07 0.7500000999999999 0.7500000999999999 1e-07 1 2 4 5 6 7 8 
3 -9.999999994736442e-08 -9.999999994736442e-08 -1e-07 1.0000001 1.0000001 1e-07 1 1 8 1 3 4 2 -5 -8 -7 -6 
$EndEntities
