$MeshFormat
4.1 0 8
$EndMeshFormat
$Entities
0 0 1 1
1 -0.9510578513145447 -0.9999999403953552 -1 0.9510578513145447 0.9999999403953552 1 0 0 
1 -0.9510578513145447 -0.9999999403953552 -1 0.9510578513145447 0.9999999403953552 1 0 1 1 
$EndEntities
$Nodes
2 43 1 43
2 1 0 42
1
2
3
4
5
6
7
8
9
10
11
12
13
14
15
16
17
18
19
20
21
22
23
24
25
26
27
28
29
30
31
32
33
34
35
36
37
38
39
40
41
42
0 0 -1
0.4253226816654205 -0.3090113997459412 -0.8506541848182678
-0.1624555587768555 -0.4999952614307404 -0.8506544232368469
0.7236073017120361 -0.5257253050804138 -0.4472195208072662
0.8506478667259216 0 -0.5257359147071838
-0.525729775428772 0 -0.8506516814231873
-0.1624555587768555 0.4999952614307404 -0.8506544232368469
0.4253226816654205 0.3090113997459412 -0.8506541848182678
0.9510578513145447 -0.3090126216411591 0
-0.276388019323349 -0.8506492376327515 -0.4472198486328125
0.2628688216209412 -0.8090116381645203 -0.5257376432418823
0 -0.9999999403953552 0
-0.8944262266159058 0 -0.4472156167030334
-0.6881893873214722 -0.4999969303607941 -0.5257362127304077
-0.9510578513145447 -0.3090126216411591 0
-0.276388019323349 0.8506492376327515 -0.4472198486328125
-0.6881893873214722 0.4999969303607941 -0.5257362127304077
-0.5877856016159058 0.8090167045593262 0
0.7236073017120361 0.5257253050804138 -0.4472195208072662
0.2628688216209412 0.8090116381645203 -0.5257376432418823
0.5877856016159058 0.8090167045593262 0
0.5877856016159058 -0.8090167045593262 0
-0.5877856016159058 -0.8090167045593262 0
-0.9510578513145447 0.3090126216411591 0
0 0.9999999403953552 0
0.9510578513145447 0.3090126216411591 0
0.276388019323349 -0.8506492376327515 0.4472198486328125
0.6881893873214722 -0.4999969303607941 0.5257362127304077
0.1624555587768555 -0.4999952614307404 0.8506543636322021
-0.7236073017120361 -0.5257253050804138 0.4472195208072662
-0.2628688216209412 -0.8090116381645203 0.5257376432418823
-0.4253226816654205 -0.3090113997459412 0.8506541848182678
-0.7236073017120361 0.5257253050804138 0.4472195208072662
-0.8506478667259216 0 0.5257359147071838
-0.4253226816654205 0.3090113997459412 0.8506541848182678
0.276388019323349 0.8506492376327515 0.4472198486328125
-0.2628688216209412 0.8090116381645203 0.5257376432418823
0.1624555587768555 0.4999952614307404 0.8506543636322021
0.8944262266159058 0 0.4472156167030334
0.6881893873214722 0.4999969303607941 0.5257362127304077
0.525729775428772 0 0.8506516814231873
0 0 1
3 1 0 1
43
-3.042665115415844e-07 -1.110223024625157e-16 2.83928174416026e-07
$EndNodes
$Elements
2 160 1 160
2 1 2 80
1 1 2 3 
2 2 1 8 
3 1 3 6 
4 1 6 7 
5 1 7 8 
6 3 2 11 
7 4 2 5 
8 2 4 11 
9 5 2 8 
10 6 3 14 
11 3 11 10 
12 3 10 14 
13 4 5 9 
14 4 9 22 
15 11 4 22 
16 5 8 19 
17 9 5 26 
18 5 19 26 
19 7 6 17 
20 6 14 13 
21 6 13 17 
22 8 7 20 
23 7 17 16 
24 7 16 20 
25 8 20 19 
26 22 9 28 
27 9 26 39 
28 9 39 28 
29 10 11 12 
30 10 12 23 
31 14 10 23 
32 12 11 22 
33 12 22 27 
34 23 12 31 
35 12 27 31 
36 13 14 15 
37 13 15 24 
38 17 13 24 
39 15 14 23 
40 15 23 30 
41 24 15 34 
42 15 30 34 
43 16 17 18 
44 16 18 25 
45 20 16 25 
46 18 17 24 
47 18 24 33 
48 25 18 37 
49 18 33 37 
50 19 20 21 
51 19 21 26 
52 21 20 25 
53 21 25 36 
54 26 21 40 
55 21 36 40 
56 22 28 27 
57 23 31 30 
58 24 34 33 
59 25 37 36 
60 26 40 39 
61 27 28 29 
62 31 27 29 
63 29 28 41 
64 28 39 41 
65 32 31 29 
66 32 29 42 
67 29 41 42 
68 30 31 32 
69 34 30 32 
70 35 34 32 
71 35 32 42 
72 33 34 35 
73 37 33 35 
74 38 37 35 
75 38 35 42 
76 36 37 38 
77 40 36 38 
78 41 40 38 
79 41 38 42 
80 39 40 41 
3 1 4 80
81 8 1 2 43 
82 35 42 32 43 
83 6 1 7 43 
84 6 3 1 43 
85 8 7 1 43 
86 2 1 3 43 
87 29 42 41 43 
88 41 42 38 43 
89 32 42 29 43 
90 38 42 35 43 
91 39 28 41 43 
92 39 41 40 43 
93 17 13 6 43 
94 6 13 14 43 
95 19 8 5 43 
96 2 4 5 43 
97 33 35 34 43 
98 34 32 30 43 
99 39 9 28 43 
100 39 40 26 43 
101 24 13 17 43 
102 15 14 13 43 
103 39 26 9 43 
104 20 8 19 43 
105 11 4 2 43 
106 15 13 24 43 
107 3 14 10 43 
108 16 17 7 43 
109 38 36 40 43 
110 28 27 29 43 
111 32 31 30 43 
112 33 37 35 43 
113 5 26 19 43 
114 9 5 4 43 
115 19 26 21 43 
116 9 4 22 43 
117 28 22 27 43 
118 21 40 36 43 
119 16 18 17 43 
120 10 14 23 43 
121 24 33 34 43 
122 34 30 15 43 
123 24 18 33 43 
124 30 23 15 43 
125 3 10 11 43 
126 16 7 20 43 
127 37 36 38 43 
128 29 27 31 43 
129 19 21 20 43 
130 11 22 4 43 
131 21 36 25 43 
132 27 22 12 43 
133 18 37 33 43 
134 30 31 23 43 
135 18 16 25 43 
136 23 12 10 43 
137 16 20 25 43 
138 12 11 10 43 
139 25 36 37 43 
140 31 27 12 43 
141 2 5 8 43 
142 35 32 34 43 
143 7 17 6 43 
144 3 6 14 43 
145 41 28 29 43 
146 38 40 41 43 
147 8 20 7 43 
148 2 3 11 43 
149 37 38 35 43 
150 32 29 31 43 
151 9 22 28 43 
152 40 21 26 43 
153 5 9 26 43 
154 18 24 17 43 
155 15 23 14 43 
156 34 15 24 43 
157 25 20 21 43 
158 11 12 22 43 
159 18 25 37 43 
160 23 31 12 43 
$EndElements
