$MeshFormat
4.1 0 8
$EndMeshFormat
$PhysicalNames
2
1 2 "Boundary"
2 1 "Domain"
$EndPhysicalNames
$Entities
4 4 1 0
1 0 0 0 0 
2 10 0 0 0 
3 10 5 0 0 
4 0 5 0 0 
1 -1.000000002804313e-07 -1e-07 -1e-07 10.0000001 1e-07 1e-07 1 2 2 1 -2 
2 9.999999900000001 -9.999999983634211e-08 -1e-07 10.0000001 5.0000001 1e-07 1 2 2 2 -3 
3 -1.000000002804313e-07 4.9999999 -1e-07 10.0000001 5.0000001 1e-07 1 2 2 3 -4 
4 -1e-07 -9.999999983634211e-08 -1e-07 1e-07 5.0000001 1e-07 1 2 2 4 -1 
1 -1.000000002804313e-07 -9.999999983634211e-08 -1e-07 10.0000001 5.0000001 1e-07 1 1 4 1 2 3 4 
$EndEntities
$Nodes
9 70 1 70
0 1 0 1
1
0 0 0
0 2 0 1
2
10 0 0
0 3 0 1
3
10 5 0
0 4 0 1
4
0 5 0
1 1 0 8
5
6
7
8
9
10
11
12
1.111111111111111 0 0
2.222222222222224 0 0
3.333333333333337 0 0
4.44444444444445 0 0
5.555555555555562 0 0
6.666666666666676 0 0
7.777777777777788 0 0
8.888888888888902 0 0
1 2 0 4
13
14
15
16
10 1.000000000000001 0
10 2.000000000000002 0
10 3.000000000000004 0
10 4.000000000000005 0
1 3 0 8
17
18
19
20
21
22
23
24
8.888888888888889 5 0
7.777777777777776 5 0
6.666666666666663 5 0
5.55555555555555 5 0
4.444444444444438 5 0
3.333333333333324 5 0
2.222222222222212 5 0
1.111111111111098 5 0
1 4 0 4
25
26
27
28
0 3.999999999999999 0
0 2.999999999999998 0
0 1.999999999999996 0
0 0.9999999999999947 0
2 1 0 42
29
30
31
32
33
34
35
36
37
38
39
40
41
42
43
44
45
46
47
48
49
50
51
52
53
54
55
56
57
58
59
60
61
62
63
64
65
66
67
68
69
70
0.8181469451228818 2.415974196800519 0
9.18420063948632 2.500413330391583 0
3.895108058639799 0.9709210554790819 0
6.116575118809539 0.9614856413790585 0
4.98266116614445 4.002045872229988 0
7.240974925784448 4.005859664903022 0
2.583634317594321 4.094183433526483 0
8.376937270386474 1.008168316984273 0
1.636632865549596 1.003665080869041 0
7.232026843331311 0.9650628423112262 0
6.677484891557508 1.917551293540629 0
5.569047869440038 1.927427023019803 0
6.132999249765458 2.879056441085906 0
7.236650937631947 2.866955828317499 0
5.028036950791599 2.891695050666285 0
4.460770080667239 1.936824415445237 0
3.918744206032537 2.907759133960227 0
3.353805328318699 1.944893830101572 0
2.814835908719753 2.918398591757693 0
2.298086807917046 1.887508855363468 0
2.77777777777778 0.9622504486493764 0
3.834411589627095 4.010415873397501 0
1.870590235903201 3.461571739671006 0
7.720450256170823 1.960036377250519 0
8.427399479612674 4.135353910720533 0
6.113595008587955 4.067052505479529 0
5.006916854592771 0.9661096892205303 0
0.8583269962741689 3.499999999999999 0
9.150687950126898 3.500000000000004 0
8.215792724905434 2.993739356686037 0
0.8225457941249426 1.500597367576871 0
9.228047796821485 1.534074942268279 0
1.533573406443425 4.259292528866248 0
1.703867679270952 2.613961019701739 0
9.286828846737038 0.7084095001831408 0
0.7140579541571306 0.7008524896891812 0
9.256650626505248 4.291340202289783 0
8.550184885524917 1.987556385219097 0
6.691104401598261 3.445718351398352 0
0.7006023027657378 4.351858505773249 0
5.586956794199644 3.448294791061996 0
1.468926095388059 1.883639263216345 0
$EndNodes
$Elements
5 138 1 138
1 1 1 9
1 1 5 
2 5 6 
3 6 7 
4 7 8 
5 8 9 
6 9 10 
7 10 11 
8 11 12 
9 12 2 
1 2 1 5
10 2 13 
11 13 14 
12 14 15 
13 15 16 
14 16 3 
1 3 1 9
15 3 17 
16 17 18 
17 18 19 
18 19 20 
19 20 21 
20 21 22 
21 22 23 
22 23 24 
23 24 4 
1 4 1 5
24 4 25 
25 25 26 
26 26 27 
27 27 28 
28 28 1 
2 1 2 110
29 33 50 45 
30 33 45 43 
31 47 50 35 
32 45 50 47 
33 42 58 34 
34 34 58 53 
35 23 61 35 
36 35 61 51 
37 37 49 48 
38 52 58 42 
39 48 49 46 
40 46 49 31 
41 29 62 56 
42 35 51 47 
43 44 46 31 
44 35 50 22 
45 22 50 21 
46 6 49 37 
47 56 62 51 
48 34 53 18 
49 12 36 11 
50 6 37 5 
51 39 52 42 
52 38 39 32 
53 21 50 33 
54 19 54 34 
55 31 55 44 
56 10 38 32 
57 36 38 11 
58 47 48 46 
59 45 47 46 
60 36 52 38 
61 19 34 18 
62 23 35 22 
63 18 53 17 
64 39 42 41 
65 38 52 39 
66 31 49 7 
67 7 49 6 
68 9 55 8 
69 45 46 44 
70 20 54 19 
71 33 54 20 
72 39 41 40 
73 44 55 40 
74 40 55 32 
75 8 55 31 
76 32 55 9 
77 11 38 10 
78 39 40 32 
79 43 45 44 
80 8 31 7 
81 21 33 20 
82 10 32 9 
83 41 43 40 
84 43 44 40 
85 52 66 58 
86 15 30 14 
87 27 29 26 
88 26 56 25 
89 51 62 47 
90 16 57 15 
91 28 59 27 
92 14 60 13 
93 29 56 26 
94 47 62 48 
95 24 61 23 
96 15 57 30 
97 27 59 29 
98 30 60 14 
99 57 58 30 
100 53 58 57 
101 17 65 3 
102 5 64 1 
103 2 63 12 
104 48 70 37 
105 3 65 16 
106 13 63 2 
107 1 64 28 
108 34 67 42 
109 58 66 30 
110 36 66 52 
111 56 68 25 
112 4 68 24 
113 37 64 5 
114 12 63 36 
115 53 65 17 
116 60 66 36 
117 43 69 33 
118 61 68 56 
119 54 67 34 
120 42 67 41 
121 33 69 54 
122 54 69 67 
123 57 65 53 
124 67 69 41 
125 59 64 37 
126 36 63 60 
127 41 69 43 
128 51 61 56 
129 59 70 29 
130 25 68 4 
131 37 70 59 
132 16 65 57 
133 28 64 59 
134 60 63 13 
135 30 66 60 
136 29 70 62 
137 24 68 61 
138 62 70 48 
$EndElements
