$MeshFormat
4.1 0 8
$EndMeshFormat
$Entities
4 4 1 0
1 0 0 0 0 
2 5 0 0 0 
3 5 3 0 0 
4 0 3 0 0 
1 0 0 0 5 0 0 1 3 2 1 -2 
2 5 0 0 5 3 0 1 1 2 2 -3 
3 0 3 0 5 3 0 1 3 2 3 -4 
4 0 0 0 0 3 0 1 2 2 4 -1 
1 0 0 0 5 3 0 1 4 4 1 2 3 4 
$EndEntities
$Nodes
9 78 1 78
0 1 0 1
1
0 0 0
0 2 0 1
2
5 0 0
0 3 0 1
3
5 3 0
0 4 0 1
4
0 3 0
1 1 0 8
5
6
7
8
9
10
11
12
0.5555555555551117 0 0
1.1111111111092 0 0
1.666666666663135 0 0
2.222222222218004 0 0
2.777777777774403 0 0
3.333333333330801 0 0
3.888888888887199 0 0
4.444444444443597 0 0
1 2 0 5
13
14
15
16
17
5 0.4999999999978248 0
5 0.9999999999960292 0
5 1.499999999994291 0
5 1.999999999996168 0
5 2.499999999998086 0
1 3 0 8
18
19
20
21
22
23
24
25
4.444444444444443 3 0
3.888888888888886 3 0
3.333333333333329 3 0
2.777777777777772 3 0
2.222222222222218 3 0
1.666666666666665 3 0
1.111111111111112 3 0
0.555555555555558 3 0
1 4 0 5
26
27
28
29
30
0 2.500000000003165 0
0 2.000000000001935 0
0 1.50000000000416 0
0 1.0000000000028 0
0 0.500000000001398 0
2 1 0 48
31
32
33
34
35
36
37
38
39
40
41
42
43
44
45
46
47
48
49
50
51
52
53
54
55
56
57
58
59
60
61
62
63
64
65
66
67
68
69
70
71
72
73
74
75
76
77
78
1.938362081827211 0.5288034179504499 0
3.056123518810095 2.519472232900259 0
0.405169414213971 1.783413739501732 0
4.602754157787205 1.250079661049963 0
1.944694902842054 2.524899849375774 0
3.054347251374772 0.5065116829611263 0
0.8333333333321559 0.4811252243233509 0
4.141103096025597 2.508593474245013 0
0.8115588168454348 2.497716112334039 0
4.185294612203783 0.5434215987974363 0
3.606945176546676 2.519377470067454 0
3.333524004013197 2.041571784028889 0
2.781235083376386 2.040147575015443 0
3.054810159928149 1.546107145556754 0
2.495440262690703 1.544142345309382 0
3.608971323960017 1.566947972596456 0
3.334165400498908 1.0786066350532 0
3.860457128893882 1.064875293265897 0
3.609574869296845 0.5564829885502309 0
2.767242810072907 1.013645123622766 0
2.214985756097106 1.045109224367175 0
1.944838131016978 1.574414829120391 0
1.653272071676568 1.098350467117122 0
1.396282271793726 1.605616016989457 0
1.115809587121179 1.085940839153178 0
1.387632215281861 0.5672942533867077 0
0.608411304942767 1.014333309461092 0
3.880096497591867 2.045224437076149 0
4.396034978287176 2.041809684962363 0
1.383442945846513 2.52201899235682 0
4.175552548006017 1.518546330235762 0
2.502523768576166 2.521030485299032 0
2.4958229832274 0.5156782414835862 0
2.221689653139657 2.045376177107846 0
1.146939337072709 2.050136050188632 0
1.672981206951939 2.053743652523153 0
0.3856611824096993 2.23886881316007 0
4.613725365952859 0.7735401884702899 0
0.825408597902262 1.555474004142403 0
4.634868336816079 1.662087135247709 0
0.4185721337466879 0.5746901939108767 0
4.581763908678948 2.440146292619475 0
0.3677978634118 1.370644210622437 0
0.3505551109621384 2.647316985099454 0
4.648692884520047 0.3633923574531102 0
4.287556762568751 1.03009261436387 0
0.7149474696888153 2.025121743865375 0
0.2605600511647304 0.2500000000006988 0
$EndNodes
$Elements
5 154 1 154
1 1 1 9
1 1 5 
2 5 6 
3 6 7 
4 7 8 
5 8 9 
6 9 10 
7 10 11 
8 11 12 
9 12 2 
1 2 1 6
10 2 13 
11 13 14 
12 14 15 
13 15 16 
14 16 17 
15 17 3 
1 3 1 9
16 3 18 
17 18 19 
18 19 20 
19 20 21 
20 21 22 
21 22 23 
22 23 24 
23 24 25 
24 25 4 
1 4 1 6
25 4 26 
26 26 27 
27 27 28 
28 28 29 
29 29 30 
30 30 1 
2 1 2 124
31 17 3 72 
32 55 37 56 
33 3 18 72 
34 37 55 57 
35 57 69 73 
36 57 55 69 
37 10 11 49 
38 31 51 53 
39 6 7 56 
40 31 53 56 
41 51 31 63 
42 40 48 49 
43 11 40 49 
44 36 47 50 
45 44 45 50 
46 36 10 49 
47 37 6 56 
48 47 36 49 
49 7 31 56 
50 48 40 76 
51 47 44 50 
52 50 51 63 
53 50 45 51 
54 59 16 72 
55 53 55 56 
56 57 29 71 
57 16 17 72 
58 29 30 71 
59 46 48 61 
60 52 64 66 
61 51 45 52 
62 42 46 58 
63 36 50 63 
64 38 58 59 
65 61 48 76 
66 58 46 61 
67 8 9 63 
68 38 19 41 
69 34 61 76 
70 38 41 58 
71 53 52 54 
72 54 52 66 
73 53 54 55 
74 18 19 38 
75 5 6 37 
76 41 42 58 
77 11 12 40 
78 24 25 39 
79 51 52 53 
80 35 23 60 
81 59 58 61 
82 31 8 63 
83 9 36 63 
84 42 44 46 
85 24 39 60 
86 46 47 48 
87 64 35 66 
88 20 32 41 
89 19 20 41 
90 46 44 47 
91 41 32 42 
92 22 35 62 
93 52 45 64 
94 23 24 60 
95 21 22 62 
96 42 43 44 
97 7 8 31 
98 9 10 36 
99 20 21 32 
100 22 23 35 
101 48 47 49 
102 42 32 43 
103 32 21 62 
104 44 43 45 
105 43 32 62 
106 62 35 64 
107 16 59 70 
108 60 39 65 
109 45 43 64 
110 65 54 66 
111 5 71 78 
112 5 37 71 
113 43 62 64 
114 60 65 66 
115 29 57 73 
116 27 28 33 
117 14 15 34 
118 69 33 73 
119 35 60 66 
120 18 38 72 
121 26 27 67 
122 13 14 68 
123 27 33 67 
124 14 34 68 
125 55 54 69 
126 54 65 69 
127 15 16 70 
128 28 29 73 
129 25 4 74 
130 12 2 75 
131 4 26 74 
132 2 13 75 
133 37 57 71 
134 1 5 78 
135 65 39 77 
136 61 34 70 
137 59 61 70 
138 40 12 75 
139 39 25 74 
140 38 59 72 
141 40 68 76 
142 39 67 77 
143 34 15 70 
144 33 28 73 
145 68 40 75 
146 67 39 74 
147 30 1 78 
148 33 69 77 
149 69 65 77 
150 26 67 74 
151 13 68 75 
152 68 34 76 
153 67 33 77 
154 71 30 78 
$EndElements
