$MeshFormat
4.1 0 8
$EndMeshFormat
$Entities
8 12 3 1
1 2.350280448153979 -5.756526855860753e-16 3.236693036885817 0 
2 2.449293598294706e-16 -5.99903913064743e-32 4 0 
3 3.885154550936036 -0.3574861361832489 0.8819171036881974 0 
4 3.999522698401041 -9.796005341428039e-16 -0.06179146360830895 0 
5 2.449293598294706e-16 -5.99903913064743e-32 -4 0 
6 10.35748613618325 6.114845449063969 4.118082896311806 0 
7 10 10 9 0 
8 10 10 1 0 
1 -9.999999983634211e-08 -1.000000005756527e-07 3.236692936885818 2.350280548153978 1e-07 4.0000001 0 2 1 -2 
2 2.350280322720252 -0.472233895557122 0.881916978254472 3.885154676369762 1.254337255451876e-07 3.236693162319544 0 2 1 -3 
3 3.885154450936036 -0.3574862361832491 -0.06179156360830801 3.999902284876183 9.999999911469715e-08 0.8819172036881984 0 2 3 -4 
4 -1.000000007245205e-07 -1.000000009796005e-07 -4.0000001 3.999522798401041 1e-07 -0.06179136360830895 0 2 5 -4 
5 -1.000000002465929e-07 -1.000000002463155e-07 -4.0000001 1.000000002465929e-07 1.000000002463155e-07 -3.9999999 0 2 5 -5 
6 -0.4722338701233955 -1.000000011686097e-07 -1.946510121057993 3.999522798401041 3.999902284876183 3.710344328434387 0 2 4 -1 
7 -1.000000002465929e-07 -1.000000002463155e-07 3.9999999 1.000000002465929e-07 1.000000002463155e-07 4.0000001 0 2 2 -2 
8 6.000097699528239 6.000097699528239 1.289655655970036 10.47223388571897 10.47223388571897 6.946510136653569 0 2 6 -6 
9 3.885154450936036 -0.3574862361832487 0.8819170036881974 10.35748623618325 6.114845549063967 4.118082996311806 0 2 3 -6 
10 9.999999900000001 9.999999899999999 0.9999998999999997 14.0000001 10.0000001 9.000000099999999 0 2 8 -7 
11 9.999999900000001 9.999999900000001 0.9999999000000001 10.0000001 10.0000001 1.0000001 0 2 8 -8 
12 9.999999900000001 9.999999900000001 8.999999900000001 10.0000001 10.0000001 9.000000099999999 0 2 7 -7 
1 -4.0000001 -4.0000001 -4.0000001 4.0000001 4.0000001 4.0000001 0 9 1 -7 -1 -6 -4 5 4 -3 -2 
2 -0.4722338701233957 -0.4722338701233957 -1.946510121057993 10.4722338701234 10.4722338701234 6.946510121057994 0 6 -8 -9 3 6 2 9 
3 5.9999999 5.9999999 0.9999998999999997 14.0000001 14.0000001 9.000000099999999 0 5 10 -12 -10 11 8 
1 -4.000000100000001 -4.000000100000001 -4.000000099999999 14.0000001 14.0000001 9.000000099999999 0 3 1 2 3 
$EndEntities
$Nodes
24 133 1 133
0 1 0 1
1
2.350280448153979 -5.756526855860753e-16 3.236693036885817
0 2 0 1
2
2.449293598294706e-16 -5.99903913064743e-32 4
0 3 0 1
3
3.885154550936036 -0.3574861361832489 0.8819171036881974
0 4 0 1
4
3.999522698401041 -9.796005341428039e-16 -0.06179146360830895
0 5 0 1
5
2.449293598294706e-16 -5.99903913064743e-32 -4
0 6 0 1
6
10.35748613618325 6.114845449063969 4.118082896311806
0 7 0 1
7
10 10 9
0 8 0 1
8
10 10 1
1 1 0 0
1 2 0 1
9
3.299778316217069 -0.4399673606625141 2.217632022084662
1 3 0 0
1 4 0 2
10
11
1.982135193010062 -4.854831039194188e-16 -3.474354627356131
3.443320289939978 -8.433702343028261e-16 -2.035570038315475
1 5 0 0
1 6 0 5
12
13
14
15
16
3.248016515052605 1.579978787661671 -1.718736672234781
1.538955165481147 3.278576228891299 -1.69780885555112
-0.02502017462343731 3.999902184876183 -0.01251008731171965
-0.4348739851522077 3.278576228891298 2.249849445715591
0.5738205712437396 1.57997878766167 3.629655215382953
1 7 0 0
1 8 0 6
17
18
19
20
21
22
10.11162573630678 7.466382534936979 1.906729524318702
8.453505746425995 9.397582114564837 1.360570344824561
6.631724338404904 10.45421151519551 2.890874359605401
6.018120070051703 9.840607246842307 5.345291433018203
7.074749470682374 8.018825838821217 6.875595447799045
9.005949050310232 6.360705848940428 6.329436268304905
1 9 0 3
23
24
25
5.503237447247843 1.260596760128557 1.690958551844101
7.121320343559651 2.878679656440366 2.500000000000005
8.739403239871454 4.49676255275217 3.309041448155907
1 10 0 4
26
27
28
29
12.35114100916989 10 1.763932022500208
13.80422606518061 9.999999999999998 3.763932022500209
13.80422606518061 9.999999999999998 6.236067977499792
12.35114100916989 10 8.236067977499793
1 11 0 0
1 12 0 0
2 1 0 43
30
31
32
33
34
35
36
37
38
39
40
41
42
43
44
45
46
47
48
49
50
51
52
53
54
55
56
57
58
59
60
61
62
63
64
65
66
67
68
69
70
71
72
3.795577290055302 -1.228309001407161 0.2912902886788281
2.521951031562732 -1.7549753881774 -2.561215410950679
-0.8254673487889721 3.26233338352933 -2.162356249740866
-2.186237671889697 3.349614937285783 -0.02108587020439079
-2.900231887672671 1.965693370587366 -1.929949369946138
-2.732911051616105 2.127508781119989 2.001225517079945
3.45473902859086 -1.53418585660687 1.308071864126173
1.42997457671149 -1.617567839824572 3.367290749775561
3.22515050840124 -2.356176435370921 0.2164181220739195
2.538400740870577 -2.717850652675971 1.473027327817276
2.051186212872924 -3.43322068633467 0.07503891686137869
1.065338782921398 -3.546797424261155 1.511714691619418
0.4062819034161285 -3.975922524110513 -0.1642409730464809
-0.7695722315560216 -3.711438306275701 1.277882732932581
-1.418549486158326 -3.702558427032257 -0.5279947440385818
-2.573561488475868 -2.908639985597385 0.9573895232442876
-2.988972959826796 -2.482825964957134 -0.9495345560636113
-1.507369654252842 -2.877614098931671 -2.333918126898913
-1.56972004595919 -2.601948445323967 2.601123462119796
-3.720887657141398 -1.379094179671041 0.5030847707198671
-2.825850346125942 -1.494956813790786 -2.404095244827125
1.418812269688737 -3.400239255326026 -1.557351838834311
-3.803633718094547 1.226819957660056 0.1651766631859127
0.9542519385369305 2.413360978213522 -3.043861367840983
3.59271121140704 -1.518839111709767 -0.8863147884193522
2.654322729324964 -1.667304856296597 2.484887394784452
1.558833728075784 -2.715436940703697 2.489264877283071
0.7930005048231039 -1.614931707474902 -3.572554517364641
-3.559988718405841 0.2850074995506998 1.801458034488452
-2.163214782321983 0.4332374522675127 3.336586146871741
-3.77198427428848 -0.3514559131828291 -1.283983401609707
-1.573951282680236 2.032139967627047 3.064813944062834
-1.424232286463378 1.374841473085453 -3.475826997720042
-2.882978632010031 -1.391139327931814 2.398575739403488
-1.925615447134267 -1.236883802598933 3.280567574159432
-0.02638616800744194 -1.682308003657864 3.628931461321166
-0.9260547979438842 -1.328681131060585 -3.657462093196411
-0.1079365879888541 -3.645612245026113 -1.642516682377681
0.56194566109174 -2.910974386917126 -2.68522721435126
0.1676718757029145 -2.949677859751605 2.696532340950032
2.088774475889825 1.262525289005992 -3.169077323684533
2.745710853260687 -2.735460114756294 -0.989105591362192
-2.869806556623148 0.192725737802929 -2.779760262603793
2 2 0 29
73
74
75
76
77
78
79
80
81
82
83
84
85
86
87
88
89
90
91
92
93
94
95
96
97
98
99
100
101
1.29471263025151 3.871454645442359 3.819431320122439
2.023575563373084 5.188667423678213 -0.3158974530737131
4.717748550869238 8.960290801177786 3.397834262584056
7.873710050216261 4.672448957424758 1.048368501419557
6.961374764301644 3.695522429674125 4.69535509123711
3.654146852637817 0.657625578522302 3.330549130322018
5.278582095067984 1.924610002981946 3.749480926653889
4.741907025637342 3.900287586928808 5.279293297260099
2.974434099504911 2.413596238923581 4.501063981210224
4.824500847525902 1.730210020660992 -0.5383081365622435
6.442326973133015 5.658296808359417 6.152331890880149
3.819213651511236 6.547584202709162 5.028448671236864
7.905420835171777 7.22857233976821 0.6422715724878922
6.24948038096764 3.158484371494345 0.1723740625521917
6.002151078062119 5.387874683394204 -0.3009453676538709
4.912162512758025 7.902553466668159 0.9464952201475616
0.9761289105833848 5.203132203974022 1.817760833991322
2.771061695657126 6.788925612541865 1.368021842382788
2.282319473953509 5.996947929137382 3.607140396733455
3.971890015564645 3.871448364924362 -1.220254087166309
3.86846539997382 6.188815083709598 -0.149603161883634
5.287168234880541 7.932411436250346 5.792667461274961
2.770380069119335 4.606354730415823 4.712793700690967
2.648158638801339 1.062148492886454 3.878859833917475
9.220994493443795 5.743165183848026 1.918570275545426
8.411007985098234 4.933178675502455 5.158516308927691
3.285741810304109 7.502832001712738 3.045833220000443
4.425473418294013 0.4006654151177016 2.213022563412268
6.536662425095326 9.191235986986259 1.449798732430904
2 3 0 24
102
103
104
105
106
107
108
109
110
111
112
113
114
115
116
117
118
119
120
121
122
123
124
125
12.75276384094314 12.10292444847489 7.000000000000648
8.075033077907285 11.7956720753893 1.98834528099319
7.045925601717173 12.50768661660261 4.007552378046022
9.323885860484932 13.35982728241063 2.93737296082957
6.838241227664348 12.01449923738547 6.394659201429474
12.75276384094182 7.897075551519269 6.999999999996309
12.75832713847491 12.15584953103048 3.065072560350527
12.75276384094234 7.897075551523331 3.000000000000133
10.53589193452124 11.94208203646641 1.544404942972981
8.816577515236705 13.79516236385339 5.443005479139236
9.163426873864188 12.79665823563781 7.734748273181016
7.864328747020657 10.67165424735262 8.314783382245487
11.54815719788036 13.67390096057488 4.674944585434702
9.213139600872278 7.976900008457039 8.359749564551418
12.24731942018135 6.713531452696651 5.385590341245183
13.50465546930333 11.92739040946172 4.949440619097348
11.13752032985278 12.25807345994933 8.099540570575597
10.83587675333602 13.47167486019964 6.802438270313366
10.98978964974844 6.743656341356045 7.101557143182205
13.63992722416666 8.341407282431765 5.000000000000002
11.23113513294065 13.12356203006653 2.825680214695677
11.05146222423827 7.897075551523335 8.236067977499703
6.837434675471346 9.62803603848544 7.420707206463302
10.82335067412418 6.152506272730071 5.720337203008292
3 1 0 8
126
127
128
129
130
131
132
133
-2.220446049250313e-15 2.220446049250313e-16 -1.554312234475219e-15
10.00000000000001 9.999999999999998 5
2.251358971234842 2.131988412816153 1.118308279614147
4.153567049359577 4.225854431964301 2.088633770744609
7.668606081124339 7.628762382254788 3.856196307236569
1.784232905928949 -0.9236468369811276 0.3202385445962347
0.04272902852377891 -1.837236780071213 0.9582963771192234
6.266927907857644 5.568799964386608 2.954975781377247
$EndNodes
$Elements
20 596 1 596
0 1 15 1
1 1 
0 2 15 1
2 2 
0 3 15 1
3 3 
0 4 15 1
4 4 
0 5 15 1
5 5 
0 6 15 1
6 6 
0 7 15 1
7 7 
0 8 15 1
8 8 
1 1 1 1
9 1 2 
1 2 1 2
10 1 9 
11 9 3 
1 3 1 1
12 3 4 
1 4 1 3
13 5 10 
14 10 11 
15 11 4 
1 6 1 6
16 4 12 
17 12 13 
18 13 14 
19 14 15 
20 15 16 
21 16 1 
1 8 1 7
22 6 17 
23 17 18 
24 18 19 
25 19 20 
26 20 21 
27 21 22 
28 22 6 
1 9 1 4
29 3 23 
30 23 24 
31 24 25 
32 25 6 
1 10 1 5
33 8 26 
34 26 27 
35 27 28 
36 28 29 
37 29 7 
2 1 2 101
38 1 16 2 
39 2 37 1 
40 1 55 9 
41 37 55 1 
42 16 64 2 
43 2 65 37 
44 64 65 2 
45 3 30 4 
46 9 36 3 
47 3 36 30 
48 11 12 4 
49 4 54 11 
50 30 54 4 
51 10 57 5 
52 5 70 10 
53 5 62 53 
54 53 70 5 
55 57 66 5 
56 5 66 62 
57 9 55 36 
58 11 31 10 
59 10 70 11 
60 31 57 10 
61 11 70 12 
62 11 54 31 
63 12 70 13 
64 13 32 14 
65 13 53 32 
66 13 70 53 
67 14 33 15 
68 32 33 14 
69 15 61 16 
70 33 35 15 
71 35 61 15 
72 16 61 59 
73 59 64 16 
74 36 38 30 
75 38 54 30 
76 51 68 31 
77 31 71 51 
78 54 71 31 
79 31 68 57 
80 32 34 33 
81 32 62 34 
82 53 62 32 
83 34 52 33 
84 33 52 35 
85 34 60 52 
86 34 72 60 
87 62 72 34 
88 52 58 35 
89 58 59 35 
90 59 61 35 
91 36 39 38 
92 36 55 39 
93 37 56 55 
94 37 69 56 
95 65 69 37 
96 39 40 38 
97 40 71 38 
98 38 71 54 
99 39 41 40 
100 39 56 41 
101 55 56 39 
102 41 42 40 
103 42 51 40 
104 51 71 40 
105 41 43 42 
106 41 69 43 
107 56 69 41 
108 43 44 42 
109 44 67 42 
110 42 67 51 
111 43 45 44 
112 43 48 45 
113 43 69 48 
114 45 46 44 
115 46 47 44 
116 47 67 44 
117 45 49 46 
118 48 63 45 
119 45 63 49 
120 46 50 47 
121 49 60 46 
122 46 60 50 
123 50 66 47 
124 66 68 47 
125 47 68 67 
126 48 64 63 
127 48 65 64 
128 48 69 65 
129 49 58 52 
130 52 60 49 
131 49 63 58 
132 60 72 50 
133 50 72 66 
134 67 68 51 
135 57 68 66 
136 58 63 59 
137 63 64 59 
138 66 72 62 
2 2 2 80
139 9 78 1 
140 1 96 16 
141 78 96 1 
142 3 4 23 
143 3 100 9 
144 23 100 3 
145 12 82 4 
146 4 82 23 
147 6 97 17 
148 22 98 6 
149 25 97 6 
150 6 98 25 
151 9 100 78 
152 13 92 12 
153 12 92 82 
154 14 74 13 
155 74 92 13 
156 15 89 14 
157 14 89 74 
158 16 73 15 
159 73 89 15 
160 16 81 73 
161 16 96 81 
162 17 85 18 
163 17 97 85 
164 18 101 19 
165 85 101 18 
166 19 75 20 
167 19 101 75 
168 20 94 21 
169 75 94 20 
170 21 83 22 
171 21 94 83 
172 83 98 22 
173 24 79 23 
174 23 86 24 
175 79 100 23 
176 82 86 23 
177 24 76 25 
178 25 77 24 
179 24 86 76 
180 77 79 24 
181 76 97 25 
182 25 98 77 
183 81 95 73 
184 73 91 89 
185 73 95 91 
186 89 90 74 
187 90 93 74 
188 74 93 92 
189 84 94 75 
190 75 99 84 
191 88 99 75 
192 75 101 88 
193 76 87 85 
194 85 97 76 
195 86 87 76 
196 77 80 79 
197 77 83 80 
198 77 98 83 
199 79 81 78 
200 78 100 79 
201 81 96 78 
202 80 81 79 
203 80 95 81 
204 83 84 80 
205 84 95 80 
206 82 92 86 
207 83 94 84 
208 91 95 84 
209 84 99 91 
210 87 88 85 
211 88 101 85 
212 86 92 87 
213 87 93 88 
214 92 93 87 
215 88 93 90 
216 90 99 88 
217 89 91 90 
218 91 99 90 
2 3 2 65
219 17 109 6 
220 6 125 22 
221 109 116 6 
222 116 125 6 
223 29 118 7 
224 7 123 29 
225 113 115 7 
226 7 118 113 
227 115 123 7 
228 18 8 17 
229 17 8 26 
230 18 110 8 
231 8 110 26 
232 26 109 17 
233 19 103 18 
234 103 110 18 
235 20 104 19 
236 19 104 103 
237 21 124 20 
238 20 106 104 
239 20 124 106 
240 22 115 21 
241 115 124 21 
242 22 120 115 
243 22 125 120 
244 26 108 27 
245 27 109 26 
246 26 110 108 
247 27 117 28 
248 28 121 27 
249 108 117 27 
250 27 121 109 
251 28 102 29 
252 29 107 28 
253 28 117 102 
254 107 121 28 
255 102 118 29 
256 29 123 107 
257 102 117 114 
258 114 119 102 
259 102 119 118 
260 104 105 103 
261 105 110 103 
262 104 111 105 
263 106 111 104 
264 105 122 110 
265 111 114 105 
266 114 122 105 
267 106 112 111 
268 106 113 112 
269 106 124 113 
270 107 120 116 
271 116 121 107 
272 107 123 120 
273 110 122 108 
274 114 117 108 
275 108 122 114 
276 109 121 116 
277 112 119 111 
278 111 119 114 
279 113 118 112 
280 118 119 112 
281 113 124 115 
282 120 123 115 
283 120 125 116 
3 1 4 313
284 67 47 44 132 
285 46 44 47 132 
286 51 68 67 132 
287 10 57 31 126 
288 11 10 31 131 
289 11 126 10 131 
290 10 126 31 131 
291 68 31 57 126 
292 46 47 126 132 
293 68 31 126 131 
294 47 50 46 126 
295 37 1 131 132 
296 12 126 11 131 
297 126 131 1 132 
298 68 51 31 131 
299 49 45 46 132 
300 11 70 10 126 
301 57 10 5 126 
302 1 37 2 132 
303 58 63 49 126 
304 126 128 1 131 
305 63 45 49 132 
306 12 128 126 131 
307 1 2 126 132 
308 47 66 50 126 
309 9 1 128 131 
310 67 42 51 132 
311 66 68 57 126 
312 63 49 126 132 
313 60 46 50 126 
314 66 47 68 126 
315 14 126 13 128 
316 45 44 46 132 
317 49 46 126 132 
318 13 126 12 128 
319 12 70 11 126 
320 58 59 63 126 
321 10 70 5 126 
322 49 52 58 126 
323 51 71 31 131 
324 78 100 128 129 
325 13 14 32 126 
326 52 35 58 126 
327 65 2 37 132 
328 70 12 13 126 
329 49 46 60 126 
330 15 126 14 128 
331 51 40 131 132 
332 72 50 66 126 
333 44 42 67 132 
334 64 16 2 126 
335 60 50 72 126 
336 56 55 131 132 
337 51 42 40 132 
338 60 34 52 126 
339 61 35 15 126 
340 33 32 14 126 
341 58 35 59 126 
342 72 34 60 126 
343 57 5 66 126 
344 34 62 32 126 
345 60 52 49 126 
346 32 33 34 126 
347 56 37 55 132 
348 51 40 71 131 
349 78 128 81 129 
350 39 56 55 131 
351 12 4 128 131 
352 3 9 128 131 
353 89 73 128 129 
354 70 13 53 126 
355 53 13 32 126 
356 23 128 100 129 
357 52 34 33 126 
358 107 28 121 127 
359 33 14 15 126 
360 55 1 9 131 
361 32 62 53 126 
362 66 62 72 126 
363 55 37 1 131 
364 35 52 33 126 
365 63 48 45 132 
366 35 61 59 126 
367 5 70 53 126 
368 28 27 121 127 
369 74 89 128 129 
370 72 62 34 126 
371 23 82 128 129 
372 99 129 90 133 
373 120 125 22 127 
374 33 15 35 126 
375 96 81 78 128 
376 53 62 5 126 
377 125 120 116 127 
378 82 92 128 129 
379 107 29 28 127 
380 5 62 66 126 
381 31 54 11 131 
382 81 128 73 129 
383 123 29 107 127 
384 121 116 107 127 
385 92 74 128 129 
386 28 117 27 127 
387 37 131 55 132 
388 123 7 29 127 
389 120 123 107 127 
390 39 56 131 132 
391 12 11 4 131 
392 79 78 81 129 
393 90 129 88 133 
394 79 24 129 133 
395 39 40 41 132 
396 105 122 114 127 
397 64 126 2 132 
398 108 114 122 127 
399 22 21 127 130 
400 63 126 64 132 
401 116 120 107 127 
402 71 54 31 131 
403 6 22 125 127 
404 39 131 40 132 
405 89 14 74 128 
406 108 27 117 127 
407 1 126 16 128 
408 79 77 24 133 
409 93 88 129 133 
410 93 129 87 133 
411 99 90 88 133 
412 122 110 108 127 
413 109 121 27 127 
414 90 93 88 129 
415 16 1 2 126 
416 125 116 6 127 
417 29 102 28 127 
418 95 84 80 129 
419 75 130 94 133 
420 95 91 84 129 
421 39 41 56 132 
422 61 16 59 126 
423 89 91 73 129 
424 119 112 111 127 
425 116 121 109 127 
426 36 55 9 131 
427 9 78 100 128 
428 84 129 99 133 
429 99 84 91 129 
430 120 115 123 127 
431 22 21 115 127 
432 115 120 22 127 
433 102 117 28 127 
434 106 111 112 127 
435 64 2 65 132 
436 119 111 114 127 
437 61 15 16 126 
438 23 86 82 129 
439 74 90 89 129 
440 100 23 82 128 
441 13 74 14 128 
442 39 38 40 131 
443 86 129 24 133 
444 105 110 122 127 
445 16 126 15 128 
446 20 19 127 130 
447 100 82 4 128 
448 7 123 115 127 
449 1 78 9 128 
450 43 44 45 132 
451 21 20 127 130 
452 89 73 15 128 
453 19 103 104 127 
454 80 129 84 133 
455 82 86 92 129 
456 92 74 13 128 
457 91 95 73 129 
458 117 114 108 127 
459 102 119 114 127 
460 19 18 103 127 
461 101 85 130 133 
462 38 71 40 131 
463 95 81 73 129 
464 22 127 6 130 
465 19 18 127 130 
466 3 9 100 128 
467 64 63 59 126 
468 42 41 40 132 
469 105 114 111 127 
470 8 110 18 127 
471 75 94 84 133 
472 104 103 105 127 
473 83 94 130 133 
474 90 91 89 129 
475 15 14 89 128 
476 108 26 27 127 
477 4 3 128 131 
478 21 124 115 127 
479 102 114 117 127 
480 12 82 92 128 
481 13 12 92 128 
482 76 86 24 133 
483 93 87 88 133 
484 19 104 20 127 
485 111 106 104 127 
486 69 37 56 132 
487 103 110 105 127 
488 111 104 105 127 
489 36 39 55 131 
490 99 91 90 129 
491 110 103 18 127 
492 92 93 74 129 
493 100 4 3 128 
494 87 129 86 133 
495 109 6 116 127 
496 118 29 7 127 
497 43 42 44 132 
498 99 75 84 133 
499 23 79 24 129 
500 59 16 64 126 
501 106 20 104 127 
502 97 25 130 133 
503 93 90 74 129 
504 101 88 85 133 
505 98 130 25 133 
506 23 24 86 129 
507 124 21 20 127 
508 11 54 4 131 
509 80 81 95 129 
510 83 84 94 133 
511 124 20 106 127 
512 17 26 8 127 
513 99 88 75 133 
514 76 87 86 133 
515 109 27 26 127 
516 65 69 48 132 
517 45 48 43 132 
518 112 113 106 127 
519 39 36 38 131 
520 6 127 17 130 
521 83 130 98 133 
522 4 82 12 128 
523 97 130 85 133 
524 119 118 112 127 
525 100 4 82 23 
526 36 30 38 131 
527 96 78 1 128 
528 113 7 115 127 
529 26 108 110 127 
530 80 79 81 129 
531 17 127 18 130 
532 65 37 69 132 
533 113 118 7 127 
534 118 102 29 127 
535 87 93 92 129 
536 112 118 113 127 
537 109 17 6 127 
538 26 110 8 127 
539 8 18 17 127 
540 119 102 118 127 
541 63 64 48 132 
542 36 9 3 131 
543 38 54 71 131 
544 109 26 17 127 
545 87 92 86 129 
546 30 54 38 131 
547 113 115 124 127 
548 84 83 80 133 
549 88 87 85 133 
550 21 22 83 130 
551 30 4 54 131 
552 113 124 106 127 
553 6 97 25 130 
554 98 6 25 130 
555 22 98 83 130 
556 83 94 21 130 
557 75 101 19 130 
558 87 76 85 133 
559 97 85 76 133 
560 80 83 77 133 
561 43 41 42 132 
562 83 98 77 133 
563 24 25 76 133 
564 97 76 25 133 
565 24 77 25 133 
566 77 98 25 133 
567 98 22 6 130 
568 69 56 41 132 
569 20 75 19 130 
570 65 48 64 132 
571 30 36 3 131 
572 15 73 16 128 
573 20 21 94 130 
574 19 101 18 130 
575 94 75 20 130 
576 16 96 1 128 
577 48 69 43 132 
578 17 85 97 130 
579 85 18 101 130 
580 41 43 69 132 
581 6 17 97 130 
582 3 4 100 23 
583 4 30 3 131 
584 85 17 18 130 
585 132 68 47 126 
586 132 47 68 67 
587 131 68 132 126 
588 131 132 68 51 
589 129 100 79 78 
590 129 79 100 23 
591 133 79 80 129 
592 133 80 79 77 
593 133 101 75 130 
594 133 75 101 88 
595 81 16 128 96 
596 81 128 16 73 
$EndElements
