$MeshFormat
4.1 0 8
$EndMeshFormat
$Entities
16 16 4 0
1 0 5 0 0 
2 0 0 0 0 
3 4 5 0 0 
4 4 0 0 0 
5 6 0 0 0 
6 6 5 0 0 
7 10 5 0 0 
8 10 0 0 0 
9 2 9 0 0 
10 2 7 0 0 
11 4 9 0 0 
12 4 7 0 0 
13 6 7 0 0 
14 6 9 0 0 
15 8 9 0 0 
16 8 7 0 0 
1 -1e-07 -9.999999983634211e-08 -1e-07 1e-07 5.0000001 1e-07 0 2 1 -2 
2 -9.999999983634211e-08 4.9999999 -1e-07 4.0000001 5.0000001 1e-07 0 2 3 -1 
3 3.9999999 -9.999999983634211e-08 -1e-07 4.0000001 5.0000001 1e-07 0 2 3 -4 
4 -9.999999983634211e-08 -1e-07 -1e-07 4.0000001 1e-07 1e-07 0 2 2 -4 
5 5.9999999 -9.999999983634211e-08 -1e-07 6.0000001 5.0000001 1e-07 0 2 5 -6 
6 5.9999999 4.9999999 -1e-07 10.0000001 5.0000001 1e-07 0 2 7 -6 
7 9.999999900000001 -9.999999983634211e-08 -1e-07 10.0000001 5.0000001 1e-07 0 2 8 -7 
8 5.9999999 -1e-07 -1e-07 10.0000001 1e-07 1e-07 0 2 5 -8 
9 1.9999999 6.9999999 -1e-07 2.0000001 9.000000099999999 1e-07 0 2 9 -10 
10 1.9999999 8.999999900000001 -1e-07 4.0000001 9.000000099999999 1e-07 0 2 11 -9 
11 3.9999999 6.9999999 -1e-07 4.0000001 9.000000099999999 1e-07 0 2 11 -12 
12 1.9999999 6.9999999 -1e-07 4.0000001 7.0000001 1e-07 0 2 10 -12 
13 5.9999999 6.9999999 -1e-07 6.0000001 9.000000099999999 1e-07 0 2 13 -14 
14 5.9999999 8.999999900000001 -1e-07 8.000000099999999 9.000000099999999 1e-07 0 2 15 -14 
15 7.9999999 6.9999999 -1e-07 8.000000099999999 9.000000099999999 1e-07 0 2 16 -15 
16 5.9999999 6.9999999 -1e-07 8.000000099999999 7.0000001 1e-07 0 2 13 -16 
1 -9.999999983634211e-08 -9.999999983634211e-08 -1e-07 4.0000001 5.0000001 1e-07 0 4 1 4 -3 2 
2 5.9999999 -9.999999983634211e-08 -1e-07 10.0000001 5.0000001 1e-07 0 4 -5 8 7 6 
3 1.9999999 6.9999999 -1e-07 4.0000001 9.000000099999999 1e-07 0 4 9 12 -11 10 
4 5.9999999 6.9999999 -1e-07 8.000000099999999 9.000000099999999 1e-07 0 4 -13 16 15 14 
$EndEntities
$Nodes
36 74 1 74
0 1 0 1
1
0 5 0
0 2 0 1
2
0 0 0
0 3 0 1
3
4 5 0
0 4 0 1
4
4 0 0
0 5 0 1
5
6 0 0
0 6 0 1
6
6 5 0
0 7 0 1
7
10 5 0
0 8 0 1
8
10 0 0
0 9 0 1
9
2 9 0
0 10 0 1
10
2 7 0
0 11 0 1
11
4 9 0
0 12 0 1
12
4 7 0
0 13 0 1
13
6 7 0
0 14 0 1
14
6 9 0
0 15 0 1
15
8 9 0
0 16 0 1
16
8 7 0
1 1 0 3
17
18
19
0 3.75 0
0 2.5 0
0 1.25 0
1 2 0 2
20
21
2.666666666666663 5 0
1.333333333333332 5 0
1 3 0 3
22
23
24
4 3.75 0
4 2.5 0
4 1.25 0
1 4 0 2
25
26
1.333333333333337 0 0
2.666666666666669 0 0
1 5 0 3
27
28
29
6 1.25 0
6 2.5 0
6 3.75 0
1 6 0 2
30
31
8.666666666666663 5 0
7.333333333333331 5 0
1 7 0 3
32
33
34
10 1.25 0
10 2.5 0
10 3.75 0
1 8 0 2
35
36
7.333333333333337 0 0
8.666666666666668 0 0
1 9 0 1
37
2 7.999999999999998 0
1 10 0 1
38
2.999999999999998 9 0
1 11 0 1
39
4 7.999999999999998 0
1 12 0 1
40
3.000000000000001 7 0
1 13 0 1
41
6 8.000000000000002 0
1 14 0 1
42
6.999999999999998 9 0
1 15 0 1
43
8 8.000000000000002 0
1 16 0 1
44
7.000000000000002 7 0
2 1 0 11
45
46
47
48
49
50
51
52
53
54
55
1.999999999999999 3.856781042276062 0
2.963310472261675 1.884017314274056 0
1.036689527738326 1.884017314274056 0
2.967948421397213 3.125 0
1.032051578602785 3.125 0
2.000000000000003 1.073235157598328 0
2 2.50469285085878 0
0.9240343603519667 0.8995255399309854 0
0.8730769823872233 4.146356208455212 0
3.126923017612775 4.146356208455212 0
3.075965639648034 0.8995255399309863 0
2 2 0 11
56
57
58
59
60
61
62
63
64
65
66
8 1.143218957723937 0
7.036689527738325 3.115982685725943 0
8.963310472261675 3.115982685725943 0
7.032051578602786 1.875 0
8.967948421397216 1.875 0
7.999999999999997 3.926764842401671 0
8 2.474093387810827 0
9.075965639648032 4.100474460069014 0
9.126923017612778 0.8536437915447872 0
6.873076982387225 0.8536437915447876 0
6.924034360351966 4.100474460069014 0
2 3 0 4
67
68
69
70
2.5625 7.5625 0
2.75 8.25 0
3.291666666666667 7.708333333333333 0
3.4375 8.4375 0
2 4 0 4
71
72
73
74
6.52277696793003 7.52277696793003 0
6.75 8.25 0
7.285046161321672 7.701712827988339 0
7.4375 8.4375 0
$EndNodes
$Elements
36 156 1 156
0 1 15 1
1 1 
0 2 15 1
2 2 
0 3 15 1
3 3 
0 4 15 1
4 4 
0 5 15 1
5 5 
0 6 15 1
6 6 
0 7 15 1
7 7 
0 8 15 1
8 8 
0 9 15 1
9 9 
0 10 15 1
10 10 
0 11 15 1
11 11 
0 12 15 1
12 12 
0 13 15 1
13 13 
0 14 15 1
14 14 
0 15 15 1
15 15 
0 16 15 1
16 16 
1 1 1 4
17 1 17 
18 17 18 
19 18 19 
20 19 2 
1 2 1 3
21 3 20 
22 20 21 
23 21 1 
1 3 1 4
24 3 22 
25 22 23 
26 23 24 
27 24 4 
1 4 1 3
28 2 25 
29 25 26 
30 26 4 
1 5 1 4
31 5 27 
32 27 28 
33 28 29 
34 29 6 
1 6 1 3
35 7 30 
36 30 31 
37 31 6 
1 7 1 4
38 8 32 
39 32 33 
40 33 34 
41 34 7 
1 8 1 3
42 5 35 
43 35 36 
44 36 8 
1 9 1 2
45 9 37 
46 37 10 
1 10 1 2
47 11 38 
48 38 9 
1 11 1 2
49 11 39 
50 39 12 
1 12 1 2
51 10 40 
52 40 12 
1 13 1 2
53 13 41 
54 41 14 
1 14 1 2
55 15 42 
56 42 14 
1 15 1 2
57 16 43 
58 43 15 
1 16 1 2
59 13 44 
60 44 16 
2 1 2 34
61 50 51 47 
62 46 51 50 
63 21 45 20 
64 19 47 18 
65 23 46 24 
66 47 49 18 
67 18 49 17 
68 23 48 46 
69 22 48 23 
70 26 50 25 
71 49 51 45 
72 45 51 48 
73 25 52 2 
74 4 55 26 
75 1 53 21 
76 20 54 3 
77 2 52 19 
78 24 55 4 
79 17 53 1 
80 3 54 22 
81 47 51 49 
82 48 51 46 
83 21 53 45 
84 45 54 20 
85 19 52 47 
86 47 52 50 
87 45 53 49 
88 48 54 45 
89 46 55 24 
90 50 55 46 
91 50 52 25 
92 26 55 50 
93 49 53 17 
94 22 54 48 
2 2 2 34
95 61 62 58 
96 57 62 61 
97 36 56 35 
98 34 58 33 
99 28 57 29 
100 58 60 33 
101 33 60 32 
102 28 59 57 
103 27 59 28 
104 31 61 30 
105 60 62 56 
106 56 62 59 
107 30 63 7 
108 6 66 31 
109 8 64 36 
110 35 65 5 
111 7 63 34 
112 29 66 6 
113 32 64 8 
114 5 65 27 
115 58 62 60 
116 59 62 57 
117 36 64 56 
118 56 65 35 
119 34 63 58 
120 58 63 61 
121 56 64 60 
122 59 65 56 
123 57 66 29 
124 61 66 57 
125 61 63 30 
126 31 66 61 
127 60 64 32 
128 27 65 59 
2 3 2 14
129 39 69 12 
130 37 68 9 
131 9 68 38 
132 12 69 40 
133 38 70 11 
134 11 70 39 
135 40 67 10 
136 10 67 37 
137 39 70 69 
138 67 68 37 
139 69 70 68 
140 67 69 68 
141 68 70 38 
142 40 69 67 
2 4 2 14
143 43 73 16 
144 14 72 42 
145 41 72 14 
146 16 73 44 
147 42 74 15 
148 15 74 43 
149 13 71 41 
150 44 71 13 
151 43 74 73 
152 71 72 41 
153 73 74 72 
154 72 74 42 
155 71 73 72 
156 44 73 71 
$EndElements
