$MeshFormat
4.1 0 8
$EndMeshFormat
$Entities
12 12 3 0
1 0 0 0 0 
2 10 0 0 0 
3 10 5 0 0 
4 0 5 0 0 
5 2 7 0 0 
6 8 7 0 0 
7 8 9 0 0 
8 2 9 0 0 
9 4 0 0 0 
10 6 0 0 0 
11 6 10 0 0 
12 4 10 0 0 
1 -1.000000002804313e-07 -1e-07 -1e-07 10.0000001 1e-07 1e-07 0 2 1 -2 
2 9.999999900000001 -9.999999983634211e-08 -1e-07 10.0000001 5.0000001 1e-07 0 2 2 -3 
3 -1.000000002804313e-07 4.9999999 -1e-07 10.0000001 5.0000001 1e-07 0 2 3 -4 
4 -1e-07 -9.999999983634211e-08 -1e-07 1e-07 5.0000001 1e-07 0 2 4 -1 
5 1.9999999 6.9999999 -1e-07 8.000000099999999 7.0000001 1e-07 0 2 5 -6 
6 7.9999999 6.9999999 -1e-07 8.000000099999999 9.000000099999999 1e-07 0 2 6 -7 
7 1.9999999 8.999999900000001 -1e-07 8.000000099999999 9.000000099999999 1e-07 0 2 7 -8 
8 1.9999999 6.9999999 -1e-07 2.0000001 9.000000099999999 1e-07 0 2 8 -5 
9 3.9999999 -1e-07 -1e-07 6.0000001 1e-07 1e-07 0 2 9 -10 
10 5.9999999 -1.000000002804313e-07 -1e-07 6.0000001 10.0000001 1e-07 0 2 10 -11 
11 3.9999999 9.999999900000001 -1e-07 6.0000001 10.0000001 1e-07 0 2 11 -12 
12 3.9999999 -1.000000002804313e-07 -1e-07 4.0000001 10.0000001 1e-07 0 2 12 -9 
1 -1.000000002804313e-07 -9.999999983634211e-08 -1e-07 10.0000001 5.0000001 1e-07 0 4 1 2 3 4 
2 1.9999999 6.9999999 -1e-07 8.000000099999999 9.000000099999999 1e-07 0 4 5 6 7 8 
3 3.9999999 -1.000000002804313e-07 -1e-07 6.0000001 10.0000001 1e-07 0 4 9 10 11 12 
$EndEntities
$Nodes
27 103 1 103
0 1 0 1
1
0 0 0
0 2 0 1
2
10 0 0
0 3 0 1
3
10 5 0
0 4 0 1
4
0 5 0
0 5 0 1
5
2 7 0
0 6 0 1
6
8 7 0
0 7 0 1
7
8 9 0
0 8 0 1
8
2 9 0
0 9 0 1
9
4 0 0
0 10 0 1
10
6 0 0
0 11 0 1
11
6 10 0
0 12 0 1
12
4 10 0
1 1 0 7
13
14
15
16
17
18
19
1.249999999999998 0 0
2.499999999999998 0 0
3.749999999999998 0 0
4.999999999999999 0 0
6.249999999999999 0 0
7.499999999999999 0 0
8.75 0 0
1 2 0 3
20
21
22
10 1.249999999999999 0
10 2.5 0
10 3.75 0
1 3 0 7
23
24
25
26
27
28
29
8.750000000000002 5 0
7.500000000000002 5 0
6.250000000000002 5 0
5.000000000000001 5 0
3.750000000000001 5 0
2.500000000000001 5 0
1.25 5 0
1 4 0 3
30
31
32
0 3.750000000000001 0
0 2.5 0
0 1.25 0
1 5 0 4
33
34
35
36
3.199999999999999 7 0
4.399999999999999 7 0
5.599999999999998 7 0
6.799999999999997 7 0
1 6 0 1
37
8 7.999999999999999 0
1 7 0 4
38
39
40
41
6.800000000000001 9 0
5.600000000000001 9 0
4.400000000000002 9 0
3.200000000000003 9 0
1 8 0 1
42
2 8.000000000000002 0
1 9 0 1
43
4.999999999999999 0 0
1 10 0 7
44
45
46
47
48
49
50
6 1.249999999999998 0
6 2.499999999999998 0
6 3.749999999999998 0
6 4.999999999999999 0
6 6.249999999999999 0
6 7.499999999999999 0
6 8.75 0
1 11 0 1
51
5.000000000000001 10 0
1 12 0 7
52
53
54
55
56
57
58
4 8.750000000000002 0
4 7.500000000000002 0
4 6.250000000000002 0
4 5.000000000000001 0
4 3.750000000000001 0
4 2.500000000000001 0
4 1.25 0
2 1 0 31
59
60
61
62
63
64
65
66
67
68
69
70
71
72
73
74
75
76
77
78
79
80
81
82
83
84
85
86
87
88
89
5.624999999999999 1.082531754730548 0
3.136429028766678 1.024102024237115 0
6.875000000000002 3.917468245269452 0
4.375000000000001 3.917468245269452 0
8.119703288398904 1.05846505631979 0
1.880296711601096 3.94153494368021 0
9.011617204020837 3.204049132916015 0
1.272254176057216 1.922959892733604 0
6.87411721473315 1.078520638328755 0
6.249852869122191 2.111431093913628 0
4.99997547818703 2.10316087738935 0
5.625 3.247595264191645 0
7.506622956322697 2.019121422194555 0
3.069176442751888 3.954218783787018 0
2.500000000000001 2.834936490538904 0
4.376900751158951 1.062476360969685 0
3.615049106218162 2.119390856366991 0
8.881508355468094 1.964928675931201 0
8.19829326843017 4.034442682320845 0
1.081042156896884 3.141339702435911 0
1.930170542464874 0.9520001262205877 0
6.853525963066595 2.879348860769606 0
4.404957305863084 2.883797653290196 0
5.625000000000002 4.235251622152466 0
2.490780570701386 1.77067787801944 0
9.084936490538903 0.9150635094610962 0
0.8975073910634688 0.8507267196966264 0
9.084936490538905 4.084936490538903 0
0.9150635094610973 4.084936490538904 0
7.947265520143723 3.000989469586613 0
3.592836570966627 3.141962405850512 0
2 2 0 6
90
91
92
93
94
95
3.85 7.976666666666667 0
4.999999999999998 7.999999999999999 0
6.149999999999999 7.976666666666667 0
7.099999999999999 7.86 0
2.899999999999999 7.859999999999999 0
2.533686103012634 8.487244897959185 0
2 3 0 8
96
97
98
99
100
101
102
103
5.018229166666667 1.927083333333332 0
4.981770833333333 8.072916666666668 0
5.000000000000001 3.124999999999998 0
5 4.374999999999999 0
4.999999999999999 5.625000000000001 0
4.999999999999999 6.875000000000002 0
4.890624999999999 9.0625 0
5.109375000000001 0.9374999999999991 0
$EndNodes
$Elements
27 212 1 212
0 1 15 1
1 1 
0 2 15 1
2 2 
0 3 15 1
3 3 
0 4 15 1
4 4 
0 5 15 1
5 5 
0 6 15 1
6 6 
0 7 15 1
7 7 
0 8 15 1
8 8 
0 9 15 1
9 9 
0 10 15 1
10 10 
0 11 15 1
11 11 
0 12 15 1
12 12 
1 1 1 8
13 1 13 
14 13 14 
15 14 15 
16 15 16 
17 16 17 
18 17 18 
19 18 19 
20 19 2 
1 2 1 4
21 2 20 
22 20 21 
23 21 22 
24 22 3 
1 3 1 8
25 3 23 
26 23 24 
27 24 25 
28 25 26 
29 26 27 
30 27 28 
31 28 29 
32 29 4 
1 4 1 4
33 4 30 
34 30 31 
35 31 32 
36 32 1 
1 5 1 5
37 5 33 
38 33 34 
39 34 35 
40 35 36 
41 36 6 
1 6 1 2
42 6 37 
43 37 7 
1 7 1 5
44 7 38 
45 38 39 
46 39 40 
47 40 41 
48 41 8 
1 8 1 2
49 8 42 
50 42 5 
1 9 1 2
51 9 43 
52 43 10 
1 10 1 8
53 10 44 
54 44 45 
55 45 46 
56 46 47 
57 47 48 
58 48 49 
59 49 50 
60 50 11 
1 11 1 2
61 11 51 
62 51 12 
1 12 1 8
63 12 52 
64 52 53 
65 53 54 
66 54 55 
67 55 56 
68 56 57 
69 57 58 
70 58 9 
2 1 2 84
71 73 78 66 
72 66 83 73 
73 76 88 71 
74 63 76 71 
75 64 78 73 
76 70 80 61 
77 61 82 70 
78 62 81 70 
79 70 82 62 
80 73 83 75 
81 65 88 76 
82 59 74 16 
83 29 64 28 
84 69 74 59 
85 17 67 59 
86 64 72 28 
87 63 71 67 
88 67 71 68 
89 68 70 69 
90 15 60 14 
91 15 74 60 
92 17 59 16 
93 18 67 17 
94 22 65 21 
95 25 61 24 
96 27 62 26 
97 28 72 27 
98 32 66 31 
99 68 69 59 
100 74 75 60 
101 64 73 72 
102 69 75 74 
103 16 74 15 
104 19 63 18 
105 67 68 59 
106 27 72 62 
107 63 67 18 
108 79 83 66 
109 61 88 77 
110 75 89 73 
111 80 88 61 
112 31 78 30 
113 14 79 13 
114 24 77 23 
115 21 76 20 
116 65 76 21 
117 66 78 31 
118 61 77 24 
119 60 79 14 
120 62 82 26 
121 68 80 70 
122 70 81 69 
123 25 82 61 
124 13 85 1 
125 1 85 32 
126 20 84 2 
127 2 84 19 
128 4 87 29 
129 3 86 22 
130 30 87 4 
131 23 86 3 
132 72 89 62 
133 75 83 60 
134 62 89 81 
135 76 84 20 
136 78 87 30 
137 79 85 13 
138 77 86 23 
139 26 82 25 
140 71 80 68 
141 69 81 75 
142 19 84 63 
143 32 85 66 
144 22 86 65 
145 29 87 64 
146 73 89 72 
147 64 87 78 
148 63 84 76 
149 65 86 77 
150 66 85 79 
151 60 83 79 
152 77 88 65 
153 71 88 80 
154 81 89 75 
2 2 2 24
155 38 93 7 
156 37 93 6 
157 5 94 42 
158 6 93 36 
159 33 94 5 
160 91 92 39 
161 90 91 40 
162 39 92 38 
163 40 91 39 
164 41 90 40 
165 34 91 90 
166 35 92 91 
167 34 90 33 
168 35 91 34 
169 36 92 35 
170 8 95 41 
171 92 93 38 
172 41 94 90 
173 41 95 94 
174 90 94 33 
175 36 93 92 
176 42 95 8 
177 94 95 42 
178 7 93 37 
2 3 2 34
179 51 102 11 
180 43 103 9 
181 9 103 58 
182 11 102 50 
183 12 102 51 
184 10 103 43 
185 44 103 10 
186 52 102 12 
187 47 100 99 
188 99 100 55 
189 97 101 49 
190 48 101 100 
191 48 100 47 
192 49 101 48 
193 50 97 49 
194 56 99 55 
195 57 98 56 
196 98 99 56 
197 58 96 57 
198 45 96 44 
199 96 98 57 
200 46 99 98 
201 53 97 52 
202 46 98 45 
203 54 101 53 
204 55 100 54 
205 100 101 54 
206 47 99 46 
207 45 98 96 
208 53 101 97 
209 50 102 97 
210 58 103 96 
211 97 102 52 
212 96 103 44 
$EndElements
