$MeshFormat
4.1 0 8
$EndMeshFormat
$Entities
6 9 5 3
1 2.449293598294706e-16 -5.99903913064743e-32 4 0 
2 2.449293598294706e-16 -5.99903913064743e-32 -4 0 
3 12.12132034355964 7.878679656440358 5.000000000000001 0 
4 2.121320343559642 -2.121320343559642 6.927648449883945e-16 0 
5 10 10 9 0 
6 10 10 1 0 
1 -1.000000002465929e-07 -1.000000002463155e-07 3.9999999 1.000000002465929e-07 1.000000002463155e-07 4.0000001 0 2 1 -1 
2 -1.000000009465651e-07 -1.000000009797174e-07 -4.0000001 4.0000001 1e-07 4.0000001 0 2 2 -1 
3 -1.000000002465929e-07 -1.000000002463155e-07 -4.0000001 1.000000002465929e-07 1.000000002463155e-07 -3.9999999 0 2 2 -2 
4 7.76393192250021 7.76393192250021 2.17157277525381 12.23606807749979 12.23606807749979 7.82842722474619 0 2 3 -3 
5 2.121320243559643 -2.121320443559642 -9.99999993922529e-08 12.12132044355964 7.878679756440358 5.000000100000001 0 2 4 -3 
6 -2.236068077499789 -2.236068077499789 -2.82842722474619 2.236068077499789 2.236068077499789 2.82842722474619 0 2 4 -4 
7 9.999999900000001 9.999999900000001 8.999999900000001 10.0000001 10.0000001 9.000000099999999 0 2 5 -5 
8 9.999999900000001 9.999999899999999 0.9999998999999997 14.0000001 10.0000001 9.000000099999999 0 2 6 -5 
9 9.999999900000001 9.999999900000001 0.9999999000000001 10.0000001 10.0000001 1.0000001 0 2 6 -6 
1 -4.0000001 -4.0000001 -4.0000001 4.0000001 4.0000001 4.0000001 0 4 -1 -2 3 2 
2 -2.236068077499789 -2.236068077499789 -2.82842722474619 12.23606807749979 12.23606807749979 7.82842722474619 0 4 -4 -5 6 5 
3 7.76393192250021 7.76393192250021 2.17157277525381 12.23606807749979 12.23606807749979 7.82842722474619 0 1 4 
4 -2.236068077499789 -2.236068077499789 -2.82842722474619 2.236068077499789 2.236068077499789 2.82842722474619 0 1 6 
5 5.9999999 5.9999999 0.9999998999999997 14.0000001 14.0000001 9.000000099999999 0 4 -7 -8 9 8 
1 -4.0000001 -4.0000001 -4.0000001 4.0000001 4.0000001 4.0000001 0 1 1 
2 -2.236068077499789 -2.236068077499789 -2.82842722474619 12.23606807749979 12.23606807749979 7.82842722474619 0 3 2 3 -4 
3 5.9999999 5.9999999 0.9999998999999997 14.0000001 14.0000001 9.000000099999999 0 1 5 
$EndEntities
$Nodes
23 149 1 149
0 1 0 1
1
2.449293598294706e-16 -5.99903913064743e-32 4
0 2 0 1
2
2.449293598294706e-16 -5.99903913064743e-32 -4
0 3 0 1
3
12.12132034355964 7.878679656440358 5.000000000000001
0 4 0 1
4
2.121320343559642 -2.121320343559642 6.927648449883945e-16
0 5 0 1
5
10 10 9
0 6 0 1
6
10 10 1
1 1 0 0
1 2 0 4
7
8
9
10
2.351141009169889 -5.758634622447965e-16 -3.236067977499792
3.804226065180614 -9.317666547912739e-16 -1.23606797749979
3.804226065180614 -9.317666547912737e-16 1.236067977499792
2.351141009169888 -5.758634622447961e-16 3.236067977499793
1 3 0 0
1 4 0 6
11
12
13
14
15
16
11.87545994368318 9.230216742313374 2.788646628006898
10.21733995380239 11.16141632194123 2.242487448512758
8.395558545781299 12.2180457225719 3.7727914632936
7.781954277428097 11.6044414542187 6.227208536706399
8.838583678058768 9.782660046197611 7.757512551487242
10.76978325768663 8.124540056316821 7.2113533719931
1 5 0 5
17
18
19
20
21
3.787987010226314 -0.454653676892971 0.8333333333333364
5.454653676892986 1.212012989773701 1.666666666666672
7.121320343559651 2.878679656440366 2.500000000000005
8.787987010226315 4.545346323107029 3.333333333333337
10.45465367689298 6.212012989773694 4.166666666666669
1 6 0 6
22
23
24
25
26
27
1.875459943683177 -0.7697832576866263 -2.211353371993102
0.2173399538023892 1.161416321941232 -2.757512551487242
-1.604441454218702 2.218045722571902 -1.2272085367064
-2.218045722571902 1.604441454218702 1.2272085367064
-1.161416321941232 -0.2173399538023887 2.757512551487242
0.769783257686628 -1.875459943683178 2.2113533719931
1 7 0 0
1 8 0 4
28
29
30
31
12.35114100916989 10 1.763932022500208
13.80422606518061 9.999999999999998 3.763932022500209
13.80422606518061 9.999999999999998 6.236067977499792
12.35114100916989 10 8.236067977499793
1 9 0 0
2 1 0 36
32
33
34
35
36
37
38
39
40
41
42
43
44
45
46
47
48
49
50
51
52
53
54
55
56
57
58
59
60
61
62
63
64
65
66
67
0.3116438054388429 1.196136356579805 3.804226065180615
2.4324095289741 -2.13436637866032 -2.351141009169894
2.752763840954124 -2.102924448500947 1.999999999958121
2.752763840942466 2.102924448476287 2.000000000000097
2.826807763884692 2.158868493143684 -1.829875595594614
3.427466440849445 -2.03778027024729 -0.3161097389226048
1.8213273318226 -3.552417158525202 -0.2511953068265795
0.4892051322525821 -3.528509740147978 1.819422257822132
0.8102145130007369 -2.26810928930178 3.193623755971569
3.547097016165136 1.846877069430783 0.08454494853715439
1.917981278964159 3.503274782884541 0.2200309277085361
0.6458717712928878 3.371244977971644 2.053669144129101
1.051462224238263 2.10292444847651 -3.236067977499808
0.1714219982255747 -3.084459619511175 -2.541008334132207
-0.3756183848682286 3.982324740722292 0.0006988419801033793
-1.84610031196687 2.938804449645213 1.988804174598726
-2.696130653748136 2.932398037701049 -0.3632096452555835
-3.5556325937379 1.29131762961441 1.29999062988766
-3.745284827995073 0.8427238530097101 -1.123680588405079
-3.834499094266483 -1.027740075533519 0.4902724071492082
-3.299528076514236 -0.824667333974226 2.105478154854641
-3.223935440909349 -1.456798722876057 -1.866541656078249
-3.040843433853819 0.3422454512312051 -2.576070507944156
-2.730146077012772 -2.921777059334687 -0.09757670683783407
-1.017822132761881 3.233327120709316 -2.1235898465913
-1.682245871439964 -2.537822517206928 2.594129082983475
-1.283987497737957 -1.717743549360203 -3.376497179664753
-0.6093576445813351 -3.94866276446868 -0.19169150604253
-2.264582947331947 0.5777600577523679 3.246206615469713
-1.952312763173227 -2.899959238150073 -1.94389076128752
1.217876852062002 3.429080407720375 -1.660777989557849
-2.373602677160027 1.510344916805888 -2.843390329036337
-2.935784848260413 2.018525021409304 -1.818440007992882
0.7532907554451367 -1.035341534318188 -3.789540993982853
-2.898122295863379 -2.378010981187801 1.394973451922942
-1.680434974107073 -3.452115818374955 1.122067143411294
2 2 0 38
68
69
70
71
72
73
74
75
76
77
78
79
80
81
82
83
84
85
86
87
88
89
90
91
92
93
94
95
96
97
98
99
100
101
102
103
104
105
6.317190812479251 10.51308655513438 4.678614075110671
0.6554405553030751 3.375595478527228 -1.434151293218842
-0.4692568880360766 2.459435710072349 2.799783249188679
6.93292056568273 3.787826581579398 4.815828588482147
5.984679112970453 3.52215407021733 -0.2144272386300403
9.426145845679484 6.54162743668983 1.658544753938447
8.168662653043697 7.494127445389264 7.057204132538496
3.592964345687949 0.4551780041794991 3.153715300265135
5.262543777250046 2.129095561906329 3.993159245344797
4.511254667195217 4.132712415021002 5.330281437319601
6.246682558331988 5.793592716088989 6.173852020265342
4.042554088260218 6.64220916151907 5.185849605162977
2.377061259510117 4.961634724102781 4.358062343630236
2.865238478980682 7.058145814728737 2.96662847484743
0.9654781722290777 5.060596343164974 2.338311289861299
2.851959167577444 6.390467455129665 0.5550684210760914
4.691167337990297 8.130850750103633 1.342757856815571
5.413818585547551 6.166985840426835 -0.2362387757291016
3.318600799564042 4.378237215489349 -1.156928029624329
4.197696049230139 1.820023104643631 -1.130907503952966
7.293784819930701 7.739351261764011 0.5938998493604508
5.783879078746896 8.298464332681805 6.083442523233003
7.598204541929748 5.192345184380845 0.5767291113901436
4.662517771028775 8.871765178009301 3.782015087314317
2.880741196523413 2.450108831482914 4.4982594768752
9.564281308816513 8.77217093042116 1.458082726303906
8.576702838310872 5.399729868426306 5.603041330224335
1.136382749162044 0.5547667024070138 3.574726299557018
-0.5869476641291098 3.648489790111089 0.5800435939560943
7.090629503277337 10.15607191835242 2.111851993198442
2.240197815631379 1.876354850755766 -2.14111975540454
1.339349707611377 4.956995758518042 -0.08824884058658378
1.126103865688648 3.348929975029483 3.829055916049162
7.116503105523639 9.761746306893443 6.707334896596509
3.253598418178597 0.1008824244104112 -1.290690663258677
10.05686865898555 6.645264875220315 6.06710410327404
2.482440980361043 -0.8887023907297811 2.330378800067798
10.92771144431311 7.487483303508042 2.741617958398772
2 3 0 1
106
10 10 5
2 4 0 1
107
6.728967680073322e-17 1.121494613345554e-16 -3.588782762705772e-16
2 5 0 37
108
109
110
111
112
113
114
115
116
117
118
119
120
121
122
123
124
125
126
127
128
129
130
131
132
133
134
135
136
137
138
139
140
141
142
143
144
10.22850370773798 7.763362569335046 8.308358967720775
12.4324095289741 12.13436637866032 2.648858990830106
12.75276384096562 12.10292444842908 7.00000000001787
12.03998641721435 7.763726526143495 7.61486832703039
12.75276384098353 7.897075551521105 3.000000000059168
13.27244153855 7.77274681422633 5.574864873890848
11.64656099846172 6.419958008863656 4.312878307688315
9.785791891286573 6.844248289381277 7.448539570251708
10.4186399079959 6.864320220174353 2.552092128811672
9.274748807710907 6.109822629831169 4.416449885005954
7.915759901257918 7.387560161144225 2.80202336246383
6.973444067896004 7.400374677165198 4.713805362170848
13.25373215355935 12.30254423801738 4.66605823132319
11.48183659319008 13.70921572243551 5.214193920362003
6.481868873996827 9.304812720614347 3.228145596605628
6.076414909653485 9.455227145332099 5.555610093165623
10.34506747772527 13.37447790218922 7.119864930473868
6.410618266397094 11.60087071854293 4.25598944027008
7.337091345335578 11.4544821480139 2.39358499505121
6.74510412053645 11.62222882429567 6.665540889763893
8.14083484106099 13.23986024932332 3.569332157123143
6.679141073330937 9.627018267626179 7.19835861871484
8.193971668091891 11.51923756992715 8.229578745048194
9.797038829656948 12.50453094689875 1.887744949500537
9.189966634182179 13.90360839000338 5.325096114644704
9.955650599532435 13.79075047219805 3.723973359130594
10.7608452130625 11.88091280727985 8.447213595524726
8.41869307195719 6.58250050028554 6.349135118798418
8.082837272621855 13.06758016201414 6.707172816784906
7.370314249391794 12.99598443469472 5.329894104395817
6.943897075588444 7.965949279995614 6.588355307811439
8.090345123663763 8.866546510829538 1.673064256530863
7.917830573211216 8.107828116113607 7.843282616972131
11.05247729812661 6.305849433569021 6.116039035816305
11.09223880753012 8.127330122068731 1.638434603400661
11.4718260642351 12.06016104845418 1.903313950192821
11.61106246241157 13.25873207654243 3.331125230725253
3 1 0 1
145
-0.004067670103065273 -0.007870790699417112 -0.01335401016192287
3 2 0 3
146
147
148
5.444538217741712 5.461764635107683 2.759963894198137
2.107823675161782 2.23810992469895 1.131987993495596
7.90524345834968 7.862581160525678 3.942421069395713
3 3 0 1
149
9.999999999999995 10.00000000000001 5
$EndNodes
$Elements
19 606 1 606
0 1 15 1
1 1 
0 2 15 1
2 2 
0 3 15 1
3 3 
0 4 15 1
4 4 
0 5 15 1
5 5 
0 6 15 1
6 6 
1 2 1 5
7 2 7 
8 7 8 
9 8 9 
10 9 10 
11 10 1 
1 4 1 7
12 3 11 
13 11 12 
14 12 13 
15 13 14 
16 14 15 
17 15 16 
18 16 3 
1 5 1 6
19 4 17 
20 17 18 
21 18 19 
22 19 20 
23 20 21 
24 21 3 
1 6 1 7
25 4 22 
26 22 23 
27 23 24 
28 24 25 
29 25 26 
30 26 27 
31 27 4 
1 8 1 5
32 6 28 
33 28 29 
34 29 30 
35 30 31 
36 31 5 
2 1 2 80
37 10 32 1 
38 1 40 10 
39 32 60 1 
40 1 60 40 
41 2 44 7 
42 7 65 2 
43 2 63 44 
44 2 65 63 
45 8 33 7 
46 7 36 8 
47 33 65 7 
48 7 44 36 
49 9 37 8 
50 8 41 9 
51 8 37 33 
52 36 41 8 
53 10 34 9 
54 9 35 10 
55 34 37 9 
56 9 41 35 
57 10 35 32 
58 10 40 34 
59 35 43 32 
60 43 47 32 
61 47 60 32 
62 37 38 33 
63 38 45 33 
64 45 65 33 
65 34 38 37 
66 34 39 38 
67 34 40 39 
68 41 42 35 
69 42 43 35 
70 36 42 41 
71 36 62 42 
72 44 62 36 
73 39 59 38 
74 38 59 45 
75 40 57 39 
76 57 67 39 
77 39 67 59 
78 40 60 57 
79 42 46 43 
80 42 62 46 
81 46 47 43 
82 56 62 44 
83 44 63 56 
84 45 61 58 
85 58 65 45 
86 59 61 45 
87 46 48 47 
88 46 56 48 
89 46 62 56 
90 48 49 47 
91 49 60 47 
92 48 50 49 
93 48 64 50 
94 56 64 48 
95 50 51 49 
96 51 52 49 
97 52 60 49 
98 50 53 51 
99 50 54 53 
100 50 64 54 
101 51 66 52 
102 53 55 51 
103 55 66 51 
104 57 60 52 
105 52 66 57 
106 54 58 53 
107 53 61 55 
108 58 61 53 
109 54 63 58 
110 54 64 63 
111 55 61 59 
112 59 67 55 
113 55 67 66 
114 63 64 56 
115 66 67 57 
116 63 65 58 
2 2 2 100
117 3 105 11 
118 16 103 3 
119 3 103 21 
120 21 105 3 
121 4 102 17 
122 17 104 4 
123 22 102 4 
124 4 104 27 
125 11 93 12 
126 11 105 93 
127 12 97 13 
128 93 97 12 
129 13 68 14 
130 13 97 68 
131 14 101 15 
132 68 101 14 
133 15 74 16 
134 15 101 74 
135 74 103 16 
136 18 75 17 
137 17 87 18 
138 75 104 17 
139 17 102 87 
140 18 72 19 
141 19 76 18 
142 18 87 72 
143 18 76 75 
144 20 71 19 
145 19 90 20 
146 71 76 19 
147 72 90 19 
148 20 73 21 
149 21 94 20 
150 20 94 71 
151 20 90 73 
152 73 105 21 
153 21 103 94 
154 23 98 22 
155 98 102 22 
156 24 69 23 
157 69 98 23 
158 25 96 24 
159 24 96 69 
160 26 70 25 
161 70 96 25 
162 27 95 26 
163 26 95 70 
164 27 104 95 
165 68 91 89 
166 89 101 68 
167 68 97 91 
168 86 98 69 
169 69 99 86 
170 96 99 69 
171 82 96 70 
172 70 100 82 
173 95 100 70 
174 71 77 76 
175 71 78 77 
176 71 94 78 
177 72 86 85 
178 85 90 72 
179 72 87 86 
180 73 90 88 
181 88 93 73 
182 93 105 73 
183 74 89 78 
184 78 94 74 
185 74 101 89 
186 94 103 74 
187 76 92 75 
188 92 95 75 
189 95 104 75 
190 77 92 76 
191 78 79 77 
192 79 80 77 
193 80 92 77 
194 78 89 79 
195 79 81 80 
196 79 91 81 
197 89 91 79 
198 81 82 80 
199 82 100 80 
200 80 100 92 
201 81 83 82 
202 81 84 83 
203 81 91 84 
204 83 99 82 
205 82 99 96 
206 84 85 83 
207 85 86 83 
208 86 99 83 
209 84 88 85 
210 84 97 88 
211 91 97 84 
212 88 90 85 
213 87 98 86 
214 87 102 98 
215 88 97 93 
216 92 100 95 
2 3 2 7
217 11 106 3 
218 3 106 16 
219 12 106 11 
220 13 106 12 
221 14 106 13 
222 15 106 14 
223 16 106 15 
2 4 2 7
224 22 4 107 
225 4 27 107 
226 23 22 107 
227 24 23 107 
228 25 24 107 
229 26 25 107 
230 27 26 107 
2 5 2 82
231 5 108 31 
232 31 134 5 
233 5 130 108 
234 5 134 130 
235 28 142 6 
236 6 143 28 
237 6 139 131 
238 131 143 6 
239 6 142 139 
240 28 109 29 
241 29 112 28 
242 28 143 109 
243 112 142 28 
244 30 113 29 
245 29 120 30 
246 109 120 29 
247 29 113 112 
248 30 110 31 
249 31 111 30 
250 30 120 110 
251 111 113 30 
252 108 111 31 
253 110 134 31 
254 108 115 111 
255 108 140 115 
256 130 140 108 
257 109 144 120 
258 143 144 109 
259 120 121 110 
260 121 124 110 
261 124 134 110 
262 111 141 113 
263 115 141 111 
264 113 114 112 
265 114 116 112 
266 116 142 112 
267 113 141 114 
268 114 117 116 
269 114 141 117 
270 115 140 135 
271 135 141 115 
272 117 118 116 
273 118 139 116 
274 139 142 116 
275 117 119 118 
276 117 135 119 
277 117 141 135 
278 119 122 118 
279 122 139 118 
280 119 123 122 
281 119 138 123 
282 135 138 119 
283 120 144 121 
284 121 132 124 
285 121 133 132 
286 121 144 133 
287 123 125 122 
288 125 126 122 
289 126 139 122 
290 123 127 125 
291 123 129 127 
292 123 138 129 
293 130 134 124 
294 124 136 130 
295 132 136 124 
296 125 128 126 
297 127 137 125 
298 125 137 128 
299 128 131 126 
300 131 139 126 
301 129 130 127 
302 130 136 127 
303 136 137 127 
304 128 133 131 
305 132 133 128 
306 128 137 132 
307 129 140 130 
308 138 140 129 
309 133 144 131 
310 131 144 143 
311 132 137 136 
312 135 140 138 
3 1 4 80
313 66 67 55 145 
314 66 55 51 145 
315 66 51 52 145 
316 53 51 55 145 
317 50 51 53 145 
318 49 51 50 145 
319 61 53 55 145 
320 55 67 59 145 
321 52 51 49 145 
322 48 50 64 145 
323 59 61 55 145 
324 49 50 48 145 
325 64 56 48 145 
326 42 36 41 145 
327 42 62 36 145 
328 52 57 66 145 
329 46 56 62 145 
330 67 39 59 145 
331 41 8 9 145 
332 66 57 67 145 
333 42 46 62 145 
334 36 8 41 145 
335 46 48 56 145 
336 59 45 61 145 
337 50 53 54 145 
338 37 9 8 145 
339 54 64 50 145 
340 36 7 8 145 
341 9 37 34 145 
342 7 33 8 145 
343 37 8 33 145 
344 34 10 9 145 
345 39 38 59 145 
346 42 43 46 145 
347 35 41 9 145 
348 38 45 59 145 
349 42 41 35 145 
350 34 38 39 145 
351 38 34 37 145 
352 37 33 38 145 
353 57 39 67 145 
354 38 33 45 145 
355 47 49 48 145 
356 48 46 47 145 
357 10 35 9 145 
358 58 53 61 145 
359 44 62 56 145 
360 43 42 35 145 
361 44 36 62 145 
362 54 53 58 145 
363 36 44 7 145 
364 46 43 47 145 
365 10 1 32 145 
366 58 61 45 145 
367 32 35 10 145 
368 43 35 32 145 
369 32 47 43 145 
370 60 52 49 145 
371 60 1 40 145 
372 64 63 56 145 
373 10 40 1 145 
374 57 52 60 145 
375 65 33 7 145 
376 34 40 10 145 
377 44 56 63 145 
378 64 54 63 145 
379 45 33 65 145 
380 34 39 40 145 
381 58 63 54 145 
382 47 60 49 145 
383 60 32 1 145 
384 40 39 57 145 
385 57 60 40 145 
386 32 60 47 145 
387 65 63 58 145 
388 45 65 58 145 
389 65 63 7 2 
390 65 7 63 145 
391 44 7 63 2 
392 44 63 7 145 
3 2 4 132
393 76 92 146 147 
394 92 80 146 147 
395 82 146 80 147 
396 76 146 18 147 
397 86 146 83 147 
398 72 146 86 147 
399 83 146 82 147 
400 72 18 146 147 
401 92 77 76 146 
402 92 80 77 146 
403 92 100 80 147 
404 94 71 78 146 
405 76 75 92 147 
406 85 83 86 146 
407 85 86 72 146 
408 83 99 86 147 
409 83 82 99 147 
410 78 94 146 148 
411 82 80 100 147 
412 94 20 71 146 
413 79 78 146 148 
414 19 18 76 146 
415 76 18 75 147 
416 73 88 146 148 
417 79 89 78 148 
418 20 146 94 148 
419 20 73 146 148 
420 88 90 73 146 
421 72 18 19 146 
422 91 79 146 148 
423 91 89 79 148 
424 73 90 20 146 
425 84 146 88 148 
426 72 86 87 147 
427 101 106 74 148 
428 72 87 18 147 
429 105 21 106 148 
430 106 21 103 148 
431 84 91 146 148 
432 107 95 104 147 
433 106 103 74 148 
434 101 68 106 148 
435 97 93 106 148 
436 107 69 96 147 
437 68 97 106 148 
438 71 76 77 146 
439 105 106 93 148 
440 107 104 17 147 
441 70 95 107 147 
442 107 96 70 147 
443 102 107 17 147 
444 107 98 69 147 
445 102 98 107 147 
446 106 68 13 97 
447 3 21 106 105 
448 77 78 71 146 
449 21 106 103 3 
450 84 88 97 148 
451 79 77 80 146 
452 93 97 106 12 
453 107 26 95 70 
454 74 101 15 106 
455 79 78 77 146 
456 69 107 96 24 
457 107 96 25 70 
458 107 27 104 95 
459 78 74 94 148 
460 16 103 74 106 
461 71 19 76 146 
462 89 74 78 148 
463 95 92 75 147 
464 104 4 107 17 
465 106 11 105 93 
466 81 79 80 146 
467 101 74 89 148 
468 101 14 106 68 
469 17 4 107 102 
470 84 97 91 148 
471 97 13 106 12 
472 23 107 98 69 
473 89 68 101 148 
474 99 69 86 147 
475 91 79 81 146 
476 95 100 92 147 
477 27 107 26 95 
478 104 95 75 147 
479 103 94 74 148 
480 86 69 98 147 
481 82 96 99 147 
482 25 96 107 24 
483 88 85 90 146 
484 20 21 73 148 
485 20 94 21 148 
486 15 16 74 106 
487 68 14 106 13 
488 102 22 107 98 
489 84 85 88 146 
490 73 93 88 148 
491 90 72 19 146 
492 20 19 71 146 
493 17 75 18 147 
494 23 107 69 24 
495 20 90 19 146 
496 26 107 25 70 
497 21 105 73 148 
498 103 21 94 148 
499 96 69 99 147 
500 82 70 96 147 
501 104 75 17 147 
502 85 72 90 146 
503 17 18 87 147 
504 83 85 84 146 
505 68 89 91 148 
506 81 83 84 146 
507 86 98 87 147 
508 106 11 93 12 
509 105 93 73 148 
510 88 93 97 148 
511 91 81 84 146 
512 16 103 106 3 
513 107 27 4 104 
514 23 107 22 98 
515 106 11 3 105 
516 100 70 82 147 
517 22 107 4 102 
518 68 91 97 148 
519 70 100 95 147 
520 102 17 87 147 
521 87 98 102 147 
522 101 14 15 106 
523 146 82 81 83 
524 146 81 82 80 
3 3 4 82
525 136 137 132 149 
526 128 132 137 149 
527 127 137 136 149 
528 128 137 125 149 
529 125 137 127 149 
530 128 133 132 149 
531 138 119 123 149 
532 121 132 133 149 
533 138 123 129 149 
534 138 135 119 149 
535 127 123 125 149 
536 125 123 122 149 
537 121 133 144 149 
538 122 123 119 149 
539 118 122 119 149 
540 143 6 28 149 
541 127 129 123 149 
542 132 124 136 149 
543 118 119 117 149 
544 126 125 122 149 
545 128 125 126 149 
546 135 115 141 149 
547 117 141 114 149 
548 119 135 117 149 
549 114 113 112 149 
550 28 112 29 149 
551 117 135 141 149 
552 28 29 109 149 
553 113 114 141 149 
554 121 144 120 149 
555 109 143 28 149 
556 121 124 132 149 
557 31 5 134 149 
558 110 121 120 149 
559 144 109 120 149 
560 29 112 113 149 
561 28 142 112 149 
562 130 5 108 149 
563 142 28 6 149 
564 114 112 116 149 
565 144 143 109 149 
566 124 110 134 149 
567 124 121 110 149 
568 134 110 31 149 
569 117 114 116 149 
570 117 116 118 149 
571 135 138 140 149 
572 115 111 141 149 
573 109 29 120 149 
574 140 138 129 149 
575 120 30 110 149 
576 135 140 115 149 
577 141 111 113 149 
578 120 29 30 149 
579 113 30 29 149 
580 144 133 131 149 
581 133 128 131 149 
582 30 31 110 149 
583 113 111 30 149 
584 116 112 142 149 
585 30 111 31 149 
586 131 128 126 149 
587 126 122 139 149 
588 118 139 122 149 
589 136 130 127 149 
590 130 134 5 149 
591 131 143 144 149 
592 143 131 6 149 
593 139 6 131 149 
594 130 136 124 149 
595 127 130 129 149 
596 118 116 139 149 
597 142 6 139 149 
598 5 31 108 149 
599 131 126 139 149 
600 124 134 130 149 
601 130 140 129 149 
602 142 139 116 149 
603 115 108 111 149 
604 108 31 111 149 
605 108 115 140 149 
606 130 108 140 149 
$EndElements
