$MeshFormat
4.1 0 8
$EndMeshFormat
$Entities
10 12 3 0
1 0 10 0 0 
2 0 0 0 0 
3 5 10 0 0 
4 5 7 0 0 
5 3 7 0 0 
6 3 3 0 0 
7 5 3 0 0 
8 5 0 0 0 
9 9 7 0 0 
10 9 3 0 0 
1 -1e-07 -1.000000002804313e-07 -1e-07 1e-07 10.0000001 1e-07 0 2 1 -2 
2 -9.999999983634211e-08 9.999999900000001 -1e-07 5.0000001 10.0000001 1e-07 0 2 3 -1 
3 4.9999999 6.9999999 -1e-07 5.0000001 10.0000001 1e-07 0 2 4 -3 
4 2.9999999 6.9999999 -1e-07 5.0000001 7.0000001 1e-07 0 2 4 -5 
5 2.9999999 2.9999999 -1e-07 3.0000001 7.0000001 1e-07 0 2 5 -6 
6 2.9999999 2.9999999 -1e-07 5.0000001 3.0000001 1e-07 0 2 6 -7 
7 4.9999999 -1.000000000583867e-07 -1e-07 5.0000001 3.0000001 1e-07 0 2 8 -7 
8 -9.999999983634211e-08 -1e-07 -1e-07 5.0000001 1e-07 1e-07 0 2 2 -8 
9 4.9999999 2.9999999 -1e-07 5.0000001 7.0000001 1e-07 0 2 7 -4 
10 4.9999999 6.9999999 -1e-07 9.000000099999999 7.0000001 1e-07 0 2 9 -4 
11 8.999999900000001 2.9999999 -1e-07 9.000000099999999 7.0000001 1e-07 0 2 10 -9 
12 4.9999999 2.9999999 -1e-07 9.000000099999999 3.0000001 1e-07 0 2 7 -10 
1 -9.999999983634211e-08 -1.000000002804313e-07 -1e-07 5.0000001 10.0000001 1e-07 0 8 1 8 7 -6 -5 -4 3 2 
2 2.9999999 2.9999999 -1e-07 5.0000001 7.0000001 1e-07 0 4 6 9 4 5 
3 4.9999999 2.9999999 -1e-07 9.000000099999999 7.0000001 1e-07 0 4 -9 12 11 10 
$EndEntities
$Nodes
25 77 1 77
0 1 0 1
1
0 10 0
0 2 0 1
2
0 0 0
0 3 0 1
3
5 10 0
0 4 0 1
4
5 7 0
0 5 0 1
5
3 7 0
0 6 0 1
6
3 3 0
0 7 0 1
7
5 3 0
0 8 0 1
8
5 0 0
0 9 0 1
9
9 7 0
0 10 0 1
10
9 3 0
1 1 0 7
11
12
13
14
15
16
17
0 8.75 0
0 7.5 0
0 6.25 0
0 5 0
0 3.75 0
0 2.5 0
0 1.25 0
1 2 0 3
18
19
20
3.75 10 0
2.5 10 0
1.25 10 0
1 3 0 2
21
22
5 8 0
5 9.000000000000002 0
1 4 0 1
23
3.999999999999998 7 0
1 5 0 2
24
25
3 5.666666666666663 0
3 4.333333333333331 0
1 6 0 1
26
4.000000000000002 3 0
1 7 0 2
27
28
5 1 0
5 2.000000000000002 0
1 8 0 3
29
30
31
1.25 0 0
2.5 0 0
3.75 0 0
1 9 0 2
32
33
5 4.333333333333337 0
5 5.666666666666669 0
1 10 0 2
34
35
7.666666666666663 7 0
6.333333333333331 7 0
1 11 0 2
36
37
9 4.333333333333337 0
9 5.666666666666669 0
1 12 0 2
38
39
6.333333333333337 3 0
7.666666666666669 3 0
2 1 0 27
40
41
42
43
44
45
46
47
48
49
50
51
52
53
54
55
56
57
58
59
60
61
62
63
64
65
66
1.871097517164381 8.937434820219545 0
1.186038129922028 1.97034981275231 0
3.459574283203934 7.859926331917871 0
3.459548698191139 2.138140738120116 0
1.007085673361011 6.850159386502956 0
1.961872367230344 3.730221798104674 0
2.407925720711348 2.044462798181404 0
1.963942870346029 5.006169306641556 0
2.380696203828636 7.97763538742421 0
3.008694083062533 1.104792451618388 0
2.996220008032582 8.919600570058 0
1.154242717059584 8.043094998545964 0
1.98095824232398 6.2461526629319 0
1.021930057665015 3.063259380239525 0
1.899958585754207 1.059096700170121 0
4.01595204399854 8.742606880786376 0
4.015628605532322 1.256965280970205 0
0.9948165745987918 5.598054447963898 0
0.9904269783066968 4.357950822158275 0
0.9054985734344592 0.8749955238529967 0
0.9150635094610966 9.084936490538905 0
1.90575611560196 7.201498905136134 0
1.882128337162883 2.78351998667359 0
4.267949192431122 7.732050807568877 0
4.267949192431123 2.267949192431122 0
4.422491436428311 9.454036942997568 0
4.422433679559344 0.5458866573161085 0
2 2 0 3
67
68
69
3.999999999999998 4.999999999999997 0
4.055555555555553 5.999999999999998 0
4.055555555555559 3.999999999999999 0
2 3 0 8
70
71
72
73
74
75
76
77
6.999999999999998 5.819233174813933 0
7.000000000000002 4.179797501139285 0
8.01024032686442 4.999838445992205 0
5.98975967313558 4.999838445992203 0
8.030720980593259 3.969279019406744 0
5.969279019406745 6.030720980593255 0
5.96927901940674 3.96927901940674 0
8.030720980593259 6.03072098059326 0
$EndNodes
$Elements
25 172 1 172
0 1 15 1
1 1 
0 2 15 1
2 2 
0 3 15 1
3 3 
0 4 15 1
4 4 
0 5 15 1
5 5 
0 6 15 1
6 6 
0 7 15 1
7 7 
0 8 15 1
8 8 
0 9 15 1
9 9 
0 10 15 1
10 10 
1 1 1 8
11 1 11 
12 11 12 
13 12 13 
14 13 14 
15 14 15 
16 15 16 
17 16 17 
18 17 2 
1 2 1 4
19 3 18 
20 18 19 
21 19 20 
22 20 1 
1 3 1 3
23 4 21 
24 21 22 
25 22 3 
1 4 1 2
26 4 23 
27 23 5 
1 5 1 3
28 5 24 
29 24 25 
30 25 6 
1 6 1 2
31 6 26 
32 26 7 
1 7 1 3
33 8 27 
34 27 28 
35 28 7 
1 8 1 4
36 2 29 
37 29 30 
38 30 31 
39 31 8 
1 9 1 3
40 7 32 
41 32 33 
42 33 4 
1 10 1 3
43 9 34 
44 34 35 
45 35 4 
1 11 1 3
46 10 36 
47 36 37 
48 37 9 
1 12 1 3
49 7 38 
50 38 39 
51 39 10 
2 1 2 81
52 40 51 48 
53 51 61 48 
54 50 55 18 
55 14 58 57 
56 31 56 49 
57 19 50 18 
58 31 49 30 
59 46 62 41 
60 28 56 27 
61 22 55 21 
62 41 54 46 
63 30 54 29 
64 25 45 6 
65 57 58 47 
66 28 64 56 
67 55 63 21 
68 49 54 30 
69 40 50 19 
70 25 47 45 
71 13 44 12 
72 20 40 19 
73 17 41 16 
74 5 52 24 
75 24 47 25 
76 44 51 12 
77 48 50 40 
78 24 52 47 
79 2 59 17 
80 12 51 11 
81 55 65 18 
82 31 66 56 
83 52 57 47 
84 45 62 6 
85 16 53 15 
86 29 59 2 
87 18 65 3 
88 8 66 31 
89 41 53 16 
90 47 58 45 
91 23 42 5 
92 6 43 26 
93 15 58 14 
94 54 59 29 
95 14 57 13 
96 42 48 5 
97 53 58 15 
98 44 61 51 
99 6 46 43 
100 11 60 1 
101 1 60 20 
102 13 57 44 
103 44 57 52 
104 45 58 53 
105 42 50 48 
106 46 49 43 
107 48 61 5 
108 6 62 46 
109 4 63 23 
110 26 64 7 
111 21 63 4 
112 7 64 28 
113 5 61 52 
114 49 56 43 
115 46 54 49 
116 42 55 50 
117 41 62 53 
118 17 59 41 
119 56 64 43 
120 42 63 55 
121 51 60 11 
122 20 60 40 
123 40 60 51 
124 53 62 45 
125 23 63 42 
126 43 64 26 
127 3 65 22 
128 27 66 8 
129 22 65 55 
130 52 61 44 
131 56 66 27 
132 41 59 54 
2 2 2 14
133 26 69 6 
134 5 68 23 
135 24 68 5 
136 6 69 25 
137 23 68 4 
138 7 69 26 
139 4 68 33 
140 32 69 7 
141 33 67 32 
142 25 67 24 
143 25 69 67 
144 67 68 24 
145 33 68 67 
146 67 69 32 
2 3 2 26
147 71 72 70 
148 70 73 71 
149 35 70 34 
150 39 71 38 
151 32 73 33 
152 37 72 36 
153 4 75 35 
154 36 74 10 
155 10 74 39 
156 33 75 4 
157 34 77 9 
158 9 77 37 
159 38 76 7 
160 7 76 32 
161 70 77 34 
162 71 76 38 
163 39 74 71 
164 35 75 70 
165 71 74 72 
166 72 77 70 
167 73 76 71 
168 70 75 73 
169 73 75 33 
170 72 74 36 
171 32 76 73 
172 37 77 72 
$EndElements
