$MeshFormat
4.1 0 8
$EndMeshFormat
$Entities
10 11 2 0
5 3 3 0 0 
6 9 3 0 0 
7 9 7 0 0 
8 3 7 0 0 
9 0 10 0 0 
10 0 0 0 0 
11 5 10 0 0 
12 5 7 0 0 
13 5 3 0 0 
14 5 0 0 0 
5 2.9999999 2.9999999 -1e-07 9.000000099999999 3.0000001 1e-07 0 2 5 -6 
6 8.999999900000001 2.9999999 -1e-07 9.000000099999999 7.0000001 1e-07 0 2 6 -7 
7 2.9999999 6.9999999 -1e-07 9.000000099999999 7.0000001 1e-07 0 2 7 -8 
8 2.9999999 2.9999999 -1e-07 3.0000001 7.0000001 1e-07 0 2 8 -5 
9 -1e-07 -1.000000002804313e-07 -1e-07 1e-07 10.0000001 1e-07 0 2 9 -10 
10 -9.999999983634211e-08 9.999999900000001 -1e-07 5.0000001 10.0000001 1e-07 0 2 11 -9 
11 4.9999999 6.9999999 -1e-07 5.0000001 10.0000001 1e-07 0 2 12 -11 
12 2.9999999 6.9999999 -1e-07 5.0000001 7.0000001 1e-07 0 2 12 -8 
13 2.9999999 2.9999999 -1e-07 5.0000001 3.0000001 1e-07 0 2 5 -13 
14 4.9999999 -1.000000000583867e-07 -1e-07 5.0000001 3.0000001 1e-07 0 2 14 -13 
15 -9.999999983634211e-08 -1e-07 -1e-07 5.0000001 1e-07 1e-07 0 2 10 -14 
1 -9.999999983634211e-08 -1.000000002804313e-07 -1e-07 5.0000001 10.0000001 1e-07 0 8 9 15 14 -13 -8 -12 11 10 
2 2.9999999 2.9999999 -1e-07 9.000000099999999 7.0000001 1e-07 0 4 5 6 7 8 
$EndEntities
$Nodes
23 82 1 82
0 5 0 1
1
3 3 0
0 6 0 1
2
9 3 0
0 7 0 1
3
9 7 0
0 8 0 1
4
3 7 0
0 9 0 1
5
0 10 0
0 10 0 1
6
0 0 0
0 11 0 1
7
5 10 0
0 12 0 1
8
5 7 0
0 13 0 1
9
5 3 0
0 14 0 1
10
5 0 0
1 5 0 4
11
12
13
14
4.199999999999998 3 0
5.4 3 0
6.600000000000003 3 0
7.800000000000006 3 0
1 6 0 2
15
16
9 4.333333333333337 0
9 5.666666666666669 0
1 7 0 4
17
18
19
20
7.800000000000002 7 0
6.6 7 0
5.399999999999997 7 0
4.199999999999994 7 0
1 8 0 2
21
22
3 5.666666666666663 0
3 4.333333333333331 0
1 9 0 7
23
24
25
26
27
28
29
0 8.75 0
0 7.5 0
0 6.25 0
0 5 0
0 3.75 0
0 2.5 0
0 1.25 0
1 10 0 3
30
31
32
3.75 10 0
2.5 10 0
1.25 10 0
1 11 0 2
33
34
5 8 0
5 9.000000000000002 0
1 12 0 1
35
3.999999999999998 7 0
1 13 0 1
36
4.000000000000002 3 0
1 14 0 2
37
38
5 1 0
5 2.000000000000002 0
1 15 0 3
39
40
41
1.25 0 0
2.5 0 0
3.75 0 0
2 1 0 27
42
43
44
45
46
47
48
49
50
51
52
53
54
55
56
57
58
59
60
61
62
63
64
65
66
67
68
1.871097517164381 8.937434820219545 0
1.186038129922028 1.97034981275231 0
3.459574283203934 7.859926331917871 0
3.459548698191139 2.138140738120116 0
1.007085673361011 6.850159386502956 0
1.961872367230344 3.730221798104674 0
2.407925720711348 2.044462798181404 0
1.963942870346029 5.006169306641556 0
2.380696203828636 7.97763538742421 0
3.008694083062533 1.104792451618388 0
2.996220008032582 8.919600570058 0
1.154242717059584 8.043094998545964 0
1.98095824232398 6.2461526629319 0
1.021930057665015 3.063259380239525 0
1.899958585754207 1.059096700170121 0
4.015952043998541 8.742606880786374 0
4.015628605532322 1.256965280970205 0
0.9948165745987918 5.598054447963898 0
0.9904269783066968 4.357950822158275 0
0.9054985734344592 0.8749955238529967 0
0.9150635094610966 9.084936490538905 0
1.90575611560196 7.201498905136134 0
1.882128337162883 2.78351998667359 0
4.267949192431122 7.732050807568877 0
4.267949192431123 2.267949192431122 0
4.422491436428311 9.454036942997568 0
4.422433679559344 0.5458866573161085 0
2 2 0 14
69
70
71
72
73
74
75
76
77
78
79
80
81
82
6.000000000000002 4.039230484541329 0
4.799999999999995 5.960769515458675 0
7.2 5.960769515458674 0
7.200000000000005 4.039230484541325 0
4.800000000000001 4.039230484541329 0
5.999999999999998 5.960769515458671 0
4.0329537826084 4.999999999999997 0
7.967046217391599 5.000000000000003 0
6.607247250164503 4.999999999999998 0
5.380976313425346 5 0
8.14781619116026 3.893632094622435 0
3.852183808839744 3.893632094622436 0
3.852183808839739 6.106367905377565 0
8.147816191160256 6.106367905377565 0
$EndNodes
$Elements
23 175 1 175
0 5 15 1
1 1 
0 6 15 1
2 2 
0 7 15 1
3 3 
0 8 15 1
4 4 
0 9 15 1
5 5 
0 10 15 1
6 6 
0 11 15 1
7 7 
0 12 15 1
8 8 
0 13 15 1
9 9 
0 14 15 1
10 10 
1 5 1 5
11 1 11 
12 11 12 
13 12 13 
14 13 14 
15 14 2 
1 6 1 3
16 2 15 
17 15 16 
18 16 3 
1 7 1 5
19 3 17 
20 17 18 
21 18 19 
22 19 20 
23 20 4 
1 8 1 3
24 4 21 
25 21 22 
26 22 1 
1 9 1 8
27 5 23 
28 23 24 
29 24 25 
30 25 26 
31 26 27 
32 27 28 
33 28 29 
34 29 6 
1 10 1 4
35 7 30 
36 30 31 
37 31 32 
38 32 5 
1 11 1 3
39 8 33 
40 33 34 
41 34 7 
1 12 1 2
42 8 35 
43 35 4 
1 13 1 2
44 1 36 
45 36 9 
1 14 1 3
46 10 37 
47 37 38 
48 38 9 
1 15 1 4
49 6 39 
50 39 40 
51 40 41 
52 41 10 
2 1 2 81
53 42 53 50 
54 53 63 50 
55 52 57 30 
56 26 60 59 
57 41 58 51 
58 31 52 30 
59 41 51 40 
60 48 64 43 
61 38 58 37 
62 34 57 33 
63 43 56 48 
64 40 56 39 
65 22 47 1 
66 59 60 49 
67 38 66 58 
68 57 65 33 
69 51 56 40 
70 42 52 31 
71 22 49 47 
72 25 46 24 
73 32 42 31 
74 29 43 28 
75 4 54 21 
76 21 49 22 
77 46 53 24 
78 50 52 42 
79 21 54 49 
80 6 61 29 
81 24 53 23 
82 57 67 30 
83 41 68 58 
84 54 59 49 
85 47 64 1 
86 28 55 27 
87 39 61 6 
88 30 67 7 
89 10 68 41 
90 43 55 28 
91 49 60 47 
92 1 45 36 
93 35 44 4 
94 27 60 26 
95 56 61 39 
96 26 59 25 
97 44 50 4 
98 55 60 27 
99 46 63 53 
100 1 48 45 
101 23 62 5 
102 5 62 32 
103 25 59 46 
104 46 59 54 
105 47 60 55 
106 44 52 50 
107 48 51 45 
108 50 63 4 
109 1 64 48 
110 8 65 35 
111 36 66 9 
112 33 65 8 
113 9 66 38 
114 4 63 54 
115 51 58 45 
116 48 56 51 
117 44 57 52 
118 43 64 55 
119 29 61 43 
120 58 66 45 
121 44 65 57 
122 53 62 23 
123 32 62 42 
124 42 62 53 
125 55 64 47 
126 35 65 44 
127 45 66 36 
128 7 67 34 
129 37 68 10 
130 34 67 57 
131 54 63 46 
132 58 68 37 
133 43 61 56 
2 2 2 42
134 73 78 75 
135 76 77 72 
136 75 78 70 
137 71 77 76 
138 13 69 12 
139 14 72 13 
140 12 73 11 
141 69 73 12 
142 13 72 69 
143 20 70 19 
144 19 74 18 
145 18 71 17 
146 70 74 19 
147 18 74 71 
148 22 75 21 
149 16 76 15 
150 72 77 69 
151 69 78 73 
152 77 78 69 
153 74 78 77 
154 74 77 71 
155 70 78 74 
156 15 79 2 
157 1 80 22 
158 21 81 4 
159 3 82 16 
160 11 80 1 
161 2 79 14 
162 4 81 20 
163 17 82 3 
164 75 80 73 
165 72 79 76 
166 70 81 75 
167 76 82 71 
168 73 80 11 
169 14 79 72 
170 22 80 75 
171 76 79 15 
172 75 81 21 
173 16 82 76 
174 20 81 70 
175 71 82 17 
$EndElements
